<?xml version="1.0" encoding="UTF-8" standalone="no"?>
<!DOCTYPE svg PUBLIC "-//W3C//DTD SVG 1.1//EN" "http://www.w3.org/Graphics/SVG/1.1/DTD/svg11.dtd">
<svg width="100%" height="100%" viewBox="0 0 512 512" version="1.1" xmlns="http://www.w3.org/2000/svg" xmlns:xlink="http://www.w3.org/1999/xlink" xml:space="preserve" xmlns:serif="http://www.serif.com/" style="fill-rule:evenodd;clip-rule:evenodd;stroke-linejoin:round;stroke-miterlimit:2;">
    <g transform="matrix(42.6667,0,0,42.6667,0.0497685,0)">
        <path d="M0.702,6C0.702,3.093 3.093,0.702 6,0.702C8.907,0.702 11.298,3.093 11.298,6C11.298,8.907 8.907,11.298 6,11.298C3.093,11.298 0.702,8.907 0.702,6M3.025,2.573C3.766,1.927 4.699,1.54 5.68,1.472L5.68,5.226L3.025,2.573ZM2.573,3.025C1.927,3.766 1.54,4.699 1.472,5.68L5.226,5.68L2.573,3.025ZM5.227,6.32L1.473,6.32C1.541,7.301 1.927,8.234 2.573,8.975L5.227,6.32ZM3.025,9.427C3.766,10.073 4.699,10.46 5.68,10.528L5.68,6.773L3.025,9.427ZM6.32,6.773L6.32,10.527C7.301,10.459 8.233,10.073 8.974,9.427L6.32,6.773ZM9.427,8.974C10.073,8.233 10.46,7.301 10.528,6.32L6.773,6.32L9.427,8.974ZM6.773,5.68L10.527,5.68C10.459,4.699 10.073,3.766 9.427,3.025L6.773,5.68ZM8.975,2.573C8.234,1.927 7.301,1.54 6.32,1.472L6.32,5.226L8.975,2.573Z"/>
    </g>
    <g transform="matrix(42.6667,0,0,42.6667,0.0497685,0)">
        <path d="M0.702,6C0.702,3.093 3.093,0.702 6,0.702C8.907,0.702 11.298,3.093 11.298,6C11.298,8.907 8.907,11.298 6,11.298C3.093,11.298 0.702,8.907 0.702,6"/>
    </g>
    <g transform="matrix(42.6667,0,0,42.6667,0.0497685,0)">
        <path d="M3.025,2.573C3.766,1.927 4.699,1.54 5.68,1.472L5.68,5.226L3.025,2.573Z" style="fill:rgb(242,94,13);"/>
        <path d="M2.573,3.025C1.927,3.766 1.54,4.699 1.472,5.68L5.226,5.68L2.573,3.025Z" style="fill:rgb(242,175,13);"/>
        <path d="M5.227,6.32L1.473,6.32C1.541,7.301 1.927,8.234 2.573,8.975L5.227,6.32Z" style="fill:rgb(229,242,13);"/>
        <path d="M3.025,9.427C3.766,10.073 4.699,10.46 5.68,10.528L5.68,6.773L3.025,9.427Z" style="fill:rgb(148,242,13);"/>
        <path d="M6.32,6.773L6.32,10.527C7.301,10.459 8.233,10.073 8.974,9.427L6.32,6.773Z" style="fill:rgb(13,242,121);"/>
        <path d="M9.427,8.974C10.073,8.233 10.46,7.301 10.528,6.32L6.773,6.32L9.427,8.974Z" style="fill:rgb(13,40,242);"/>
        <path d="M6.773,5.68L10.527,5.68C10.459,4.699 10.073,3.766 9.427,3.025L6.773,5.68Z" style="fill:rgb(147,13,242);"/>
        <path d="M8.975,2.573C8.234,1.927 7.301,1.54 6.32,1.472L6.32,5.226L8.975,2.573Z" style="fill:rgb(242,13,13);"/>
    </g>
</svg>
