<?xml version="1.0" encoding="utf-8"?>
<!-- Generator: Adobe Illustrator 21.1.0, SVG Export Plug-In . SVG Version: 6.00 Build 0)  -->
<svg version="1.1" id="Ebene_1" xmlns="http://www.w3.org/2000/svg" x="0px"
     y="0px"
     viewBox="0 0 16 16" style="enable-background:new 0 0 16 16;"
     xml:space="preserve">
<style type="text/css">
	.st0{fill:#202020;}
	.st1{fill:#1A1A18;}
</style>
<path class="st0" d="M13.13379,1.43311c-1.29419,0-2.34521,1.04419-2.36377,2.3335h-4.896L4.1543,2.04736
	C3.95605,1.84814,3.54395,1.43359,2.86621,1.43359H1c-0.27637,0-0.5,0.22363-0.5,0.5s0.22363,0.5,0.5,0.5h1.86621
	c0.24219,0,0.40527,0.14453,0.58008,0.32031l1.01318,1.0127H3.7998c-0.20215,0-0.38477,0.12207-0.46191,0.30859
	c-0.07715,0.18701-0.03418,0.40186,0.1084,0.54492L7.9668,9.14014v4.42676H6.13379c-0.27637,0-0.5,0.22363-0.5,0.5
	s0.22363,0.5,0.5,0.5h4.66602c0.27637,0,0.5-0.22363,0.5-0.5s-0.22363-0.5-0.5-0.5H8.9668V9.14014l3.20532-3.20502
	c0.30347,0.13672,0.62305,0.23187,0.96167,0.23187c1.30469,0,2.36621-1.06152,2.36621-2.3667S14.43848,1.43311,13.13379,1.43311z
	 M11.92676,4.7666L8.4668,8.22607L5.00684,4.7666H11.92676z M13.13379,5.16699c-0.05762,0-0.11145-0.01855-0.16785-0.02557
	l0.52136-0.5213c0.14258-0.14307,0.18555-0.35791,0.1084-0.54492c-0.07715-0.18652-0.25977-0.30859-0.46191-0.30859h-1.36377
	c0.01831-0.73804,0.62134-1.3335,1.36377-1.3335c0.75293,0,1.36621,0.61328,1.36621,1.36719
	C14.5,4.55371,13.88672,5.16699,13.13379,5.16699z"/>
</svg>
