<?xml version="1.0" encoding="utf-8"?>
<!-- Generator: Adobe Illustrator 21.1.0, SVG Export Plug-In . SVG Version: 6.00 Build 0)  -->
<svg version="1.1" id="Ebene_1" xmlns="http://www.w3.org/2000/svg" x="0px"
     y="0px"
     viewBox="0 0 16 16" style="enable-background:new 0 0 16 16;"
     xml:space="preserve">
<style type="text/css">
	.st0{fill:#202020;}
	.st1{fill:#1A1A18;}
</style>
<g>
	<path class="st0" d="M12.66699,6.7998c-0.13818,0-0.27075,0.02161-0.40381,0.04083L11.27441,3.875
		c-0.06836-0.2041-0.25977-0.3418-0.47461-0.3418H8.93359c-0.27637,0-0.5,0.22363-0.5,0.5s0.22363,0.5,0.5,0.5h1.50586
		l0.28906,0.86719H4.71484c-0.20898,0-0.39648,0.13037-0.46875,0.32666L3.83044,6.8501
		C3.66833,6.82117,3.50342,6.7998,3.33301,6.7998C1.77051,6.7998,0.5,8.0708,0.5,9.6333s1.27051,2.8335,2.83301,2.8335
		c1.39111,0,2.54565-1.00928,2.78345-2.33301h1.89917c0.15234,0,0.2959-0.06934,0.39062-0.18799l2.70679-3.39178l0.20166,0.6048
		C10.43677,7.64069,9.83301,8.56299,9.83301,9.6333c0,1.5625,1.27148,2.8335,2.83398,2.8335S15.5,11.1958,15.5,9.6333
		S14.22949,6.7998,12.66699,6.7998z M4.89331,6.85748l2.01257,2.27631H6.11646C5.96851,8.30902,5.46252,7.61475,4.76562,7.20245
		L4.89331,6.85748z M4.41199,8.1579c0.32458,0.23804,0.56396,0.57928,0.67712,0.97589H4.05078L4.41199,8.1579z M3.33301,11.4668
		C2.32227,11.4668,1.5,10.64453,1.5,9.6333s0.82227-1.8335,1.83301-1.8335c0.0481,0,0.09338,0.01056,0.14062,0.01422
		L2.86426,9.46045C2.80762,9.61377,2.8291,9.78516,2.92285,9.91943s0.24609,0.21436,0.41016,0.21436h1.75586
		C4.86951,10.9007,4.16992,11.4668,3.33301,11.4668z M7.99634,8.85681L5.82458,6.40039h4.13147L7.99634,8.85681z M12.66699,11.4668
		c-1.01172,0-1.83398-0.82227-1.83398-1.8335c0-0.62866,0.31836-1.18365,0.80188-1.5141l0.5575,1.6723
		c0.07031,0.20947,0.26562,0.3418,0.47461,0.3418c0.05273,0,0.10547-0.0083,0.1582-0.02588
		c0.26172-0.08691,0.40332-0.37012,0.31641-0.63232l-0.55591-1.66711c0.02759-0.00122,0.05347-0.00818,0.0813-0.00818
		c1.01074,0,1.83301,0.82227,1.83301,1.8335S13.67773,11.4668,12.66699,11.4668z"/>
	<path class="st0" d="M3.7998,4.99951h1.86621c0.27637,0,0.5-0.22363,0.5-0.5s-0.22363-0.5-0.5-0.5H3.7998
		c-0.27637,0-0.5,0.22363-0.5,0.5S3.52344,4.99951,3.7998,4.99951z"/>
</g>
</svg>
