<?xml version="1.0" encoding="utf-8"?>
<!-- Generator: Adobe Illustrator 21.1.0, SVG Export Plug-In . SVG Version: 6.00 Build 0)  -->
<svg version="1.1" id="Ebene_1" xmlns="http://www.w3.org/2000/svg" x="0px"
     y="0px"
     viewBox="0 0 16 16" style="enable-background:new 0 0 16 16;"
     xml:space="preserve">
<style type="text/css">
	.st0{fill:#202020;}
	.st1{fill:#1A1A18;}
</style>
<g>
	<path class="st0" d="M5.65234,10.76807H4.28027c-0.27637,0-0.5,0.22363-0.5,0.5s0.22363,0.5,0.5,0.5h1.37207
		c0.27637,0,0.5-0.22363,0.5-0.5S5.92871,10.76807,5.65234,10.76807z"/>
	<path class="st0" d="M11.73242,10.76807h-1.37109c-0.27637,0-0.5,0.22363-0.5,0.5s0.22363,0.5,0.5,0.5h1.37109
		c0.27637,0,0.5-0.22363,0.5-0.5S12.00879,10.76807,11.73242,10.76807z"/>
	<path class="st0" d="M7.31348,2.90137h1.37207c0.27637,0,0.5-0.22363,0.5-0.5s-0.22363-0.5-0.5-0.5H7.31348
		c-0.27637,0-0.5,0.22363-0.5,0.5S7.03711,2.90137,7.31348,2.90137z"/>
	<path class="st0" d="M14.09961,1.93311c0-0.79004-0.64258-1.43311-1.43262-1.43311H3.33301
		c-0.79004,0-1.43262,0.64307-1.43262,1.43311v11.7002h0.46582v0.8999c0,0.5332,0.43359,0.9668,0.9668,0.9668H4.7334
		c0.53223,0,0.96582-0.43359,0.96582-0.9668v-0.8999h4.60059v0.8999c0,0.5332,0.43359,0.9668,0.9668,0.9668h1.40039
		c0.53223,0,0.96582-0.43359,0.96582-0.9668v-0.8999h0.4668V1.93311z M2.90039,12.6333V9.90137h10.19922v2.73193H2.90039z
		 M13.09961,8.90137H2.90039v-4.1333h10.19922V8.90137z M3.33301,1.5h9.33398c0.23828,0,0.43262,0.19434,0.43262,0.43311v1.83496
		H2.90039V1.93311C2.90039,1.69434,3.09473,1.5,3.33301,1.5z M4.7334,14.5l-1.36719,0.0332v-0.8999h1.34546L4.7334,14.5z
		 M12.66699,14.5l-1.36719,0.0332v-0.8999h1.34546L12.66699,14.5z"/>
</g>
</svg>
