<?xml version="1.0" encoding="utf-8"?>
<!-- Generator: Adobe Illustrator 21.1.0, SVG Export Plug-In . SVG Version: 6.00 Build 0)  -->
<svg version="1.1" id="Ebene_1" xmlns="http://www.w3.org/2000/svg" x="0px"
     y="0px"
     viewBox="0 0 16 16" style="enable-background:new 0 0 16 16;"
     xml:space="preserve">
<style type="text/css">
	.st0{fill:#202020;}
	.st1{fill:#1A1A18;}
</style>
<g>
	<path class="st1" d="M8.08789,5.8374c-1.14453,0-2.0752,0.93115-2.0752,2.0752S6.94336,9.9873,8.08789,9.9873
		s2.0752-0.93066,2.0752-2.07471S9.23242,5.8374,8.08789,5.8374z M8.08789,8.9873c-0.59277,0-1.0752-0.48193-1.0752-1.07471
		s0.48242-1.0752,1.0752-1.0752s1.0752,0.48242,1.0752,1.0752S8.68066,8.9873,8.08789,8.9873z"/>
	<path class="st1" d="M15,7.5h-1.18298C13.61377,4.65881,11.34155,2.38647,8.5,2.18347V1c0-0.27637-0.22363-0.5-0.5-0.5
		S7.5,0.72363,7.5,1v1.19244C4.73999,2.47394,2.55786,4.7171,2.35876,7.5H1C0.72363,7.5,0.5,7.72363,0.5,8S0.72363,8.5,1,8.5
		h1.36768C2.64307,11.20221,4.79761,13.35712,7.5,13.63275V15c0,0.27637,0.22363,0.5,0.5,0.5s0.5-0.22363,0.5-0.5v-1.35828
		c2.78369-0.19885,5.02673-2.38171,5.30811-5.14172H15c0.27637,0,0.5-0.22363,0.5-0.5S15.27637,7.5,15,7.5z M8.08789,12.6626
		c-2.61914,0-4.75-2.13086-4.75-4.75s2.13086-4.75,4.75-4.75s4.75,2.13086,4.75,4.75S10.70703,12.6626,8.08789,12.6626z"/>
</g>
</svg>
