<?xml version="1.0" encoding="utf-8"?>
<!-- Generator: Adobe Illustrator 21.1.0, SVG Export Plug-In . SVG Version: 6.00 Build 0)  -->
<svg version="1.1" id="Ebene_1" xmlns="http://www.w3.org/2000/svg" x="0px"
     y="0px"
     viewBox="0 0 16 16" style="enable-background:new 0 0 16 16;"
     xml:space="preserve">
<style type="text/css">
	.st0{fill:#202020;}
	.st1{fill:#1A1A18;}
</style>
<g>
	<path class="st0" d="M9.6543,6.5C9.44629,6.31689,9.13086,6.33447,8.94824,6.54199
		C8.76465,6.74854,8.78418,7.06445,8.99023,7.24805l0.1936,0.17188H5.42383v2.11133c0,0.27637,0.22363,0.5,0.5,0.5
		s0.5-0.22363,0.5-0.5V8.41992h2.76074L8.99023,8.59277C8.78418,8.77588,8.76465,9.09229,8.94824,9.29834
		c0.09863,0.11133,0.23633,0.16797,0.37402,0.16797c0.11816,0,0.2373-0.0415,0.33203-0.12646l1.59863-1.4209L9.6543,6.5z"/>
	<path class="st0" d="M8.09375,0.29297L0.38672,8l7.70703,7.70703L15.80078,8L8.09375,0.29297z M1.80078,8l6.29297-6.29297
		L14.38672,8l-6.29297,6.29297L1.80078,8z"/>
</g>
</svg>
