<?xml version="1.0" encoding="utf-8"?>
<!-- Generator: Adobe Illustrator 21.1.0, SVG Export Plug-In . SVG Version: 6.00 Build 0)  -->
<svg version="1.1" id="Ebene_1" xmlns="http://www.w3.org/2000/svg" x="0px"
     y="0px"
     viewBox="0 0 16 16" style="enable-background:new 0 0 16 16;"
     xml:space="preserve">
<style type="text/css">
	.st0{fill:#202020;}
	.st1{fill:#1A1A18;}
</style>
<g>
	<path class="st0" d="M3.53711,0.5c-0.27637,0-0.5,0.22363-0.5,0.5s0.22363,0.5,0.5,0.5c1.36523,0,2.47559,1.11035,2.47559,2.4751
		c0,1.4165-1.21484,2.4751-2.30078,2.4751c-0.27637,0-0.5,0.22363-0.5,0.5V15c0,0.27637,0.22363,0.5,0.5,0.5s0.5-0.22363,0.5-0.5
		V7.39343C5.75171,7.12164,7.0127,5.64728,7.0127,3.9751C7.0127,2.05908,5.45312,0.5,3.53711,0.5z"/>
	<path class="st0" d="M14.3623,3.9751c0-1.91602-1.55859-3.4751-3.47461-3.4751S7.41211,2.05908,7.41211,3.9751
		c0,1.80469,1.38855,3.27539,3.15039,3.4422V15c0,0.27637,0.22363,0.5,0.5,0.5s0.5-0.22363,0.5-0.5V7.38196
		C13.15625,7.06665,14.3623,5.66003,14.3623,3.9751z M10.8877,6.4502c-1.36523,0-2.47559-1.11035-2.47559-2.4751
		S9.52246,1.5,10.8877,1.5c1.36426,0,2.47461,1.11035,2.47461,2.4751S12.25195,6.4502,10.8877,6.4502z"/>
	<path class="st0" d="M6.16211,8.8999c-0.27637,0-0.5,0.22363-0.5,0.5V15c0,0.27637,0.22363,0.5,0.5,0.5s0.5-0.22363,0.5-0.5V9.3999
		C6.66211,9.12354,6.43848,8.8999,6.16211,8.8999z"/>
	<path class="st0" d="M8.6123,8.8999c-0.27637,0-0.5,0.22363-0.5,0.5V15c0,0.27637,0.22363,0.5,0.5,0.5s0.5-0.22363,0.5-0.5V9.3999
		C9.1123,9.12354,8.88867,8.8999,8.6123,8.8999z"/>
</g>
</svg>
