<?xml version="1.0" encoding="utf-8"?>
<!-- Generator: Adobe Illustrator 21.1.0, SVG Export Plug-In . SVG Version: 6.00 Build 0)  -->
<svg version="1.1" id="Ebene_1" xmlns="http://www.w3.org/2000/svg" x="0px"
     y="0px"
     viewBox="0 0 16 16" style="enable-background:new 0 0 16 16;"
     xml:space="preserve">
<style type="text/css">
	.st0{fill:#202020;}
	.st1{fill:#1A1A18;}
</style>
<g>
	<path class="st0" d="M8.00488,15.01074c-0.11328,0-0.22754-0.03857-0.31934-0.11572
		c-2.31445-1.92529-6.18848-5.14795-7.03711-8.33691C0.53125,6.1875,0.46875,5.78027,0.46875,5.37012
		c0-0.03223,0.00293-0.06494,0.00879-0.09814H0.47363C0.52637,3.0752,2.28809,1.35449,4.48438,1.35449
		c1.39258,0,2.74219,0.71436,3.51562,1.7876c0.77344-1.07422,2.12109-1.7876,3.51562-1.7876
		c2.21387,0,4.01562,1.80127,4.01562,4.01562v0.0166c-0.00391,0.22119-0.02246,0.40918-0.05078,0.59375
		c-0.04199,0.25977-0.08691,0.44678-0.14453,0.62744c-0.64844,2.17676-2.94336,4.89062-7.01074,8.28662
		C8.23242,14.97217,8.11914,15.01074,8.00488,15.01074z M1.46875,5.35205c0,0.01562,0,0.02881,0,0.03418
		c0,0.29248,0.04688,0.59814,0.13965,0.89307c0.7373,2.76709,4.15234,5.70898,6.39453,7.57959
		c3.66309-3.09863,5.80859-5.63672,6.37695-7.54639c0.04688-0.146,0.08008-0.28613,0.10449-0.43018
		c0.02832-0.19092,0.04297-0.33301,0.04492-0.47852l0.00195-0.03369c0-1.6626-1.35254-3.01562-3.01562-3.01562
		c-1.32422,0-2.63477,0.86768-3.04785,2.01855C8.38574,4.60156,8.15723,4.73682,7.91113,4.69678
		c-0.20605-0.03613-0.36426-0.19482-0.4043-0.39355C7.06152,3.1709,5.80078,2.35449,4.48438,2.35449
		c-1.64844,0-2.9707,1.29199-3.01074,2.94189C1.47266,5.31494,1.47168,5.3335,1.46875,5.35205z"/>
</g>
</svg>
