<?xml version="1.0" encoding="utf-8"?>
<!-- Generator: Adobe Illustrator 21.1.0, SVG Export Plug-In . SVG Version: 6.00 Build 0)  -->
<svg version="1.1" id="Ebene_1" xmlns="http://www.w3.org/2000/svg" x="0px"
     y="0px"
     viewBox="0 0 16 16" style="enable-background:new 0 0 16 16;"
     xml:space="preserve">
<style type="text/css">
	.st0{fill:#202020;}
	.st1{fill:#1A1A18;}
</style>
<g>
	<path class="st0" d="M3.71387,9.35059c1.22168,0,2.21484-0.99316,2.21484-2.21436S4.93555,4.92188,3.71387,4.92188
		C2.49316,4.92188,1.5,5.91504,1.5,7.13623S2.49316,9.35059,3.71387,9.35059z M3.71387,5.92188
		c0.66992,0,1.21484,0.54492,1.21484,1.21436S4.38379,8.35059,3.71387,8.35059C3.04492,8.35059,2.5,7.80566,2.5,7.13623
		S3.04492,5.92188,3.71387,5.92188z"/>
	<path class="st0" d="M12.5,3.63623H6.92871c-0.27637,0-0.5,0.22363-0.5,0.5v5.92871H1V2.42188c0-0.27637-0.22363-0.5-0.5-0.5
		S0,2.14551,0,2.42188v11.57129c0,0.27637,0.22363,0.5,0.5,0.5s0.5-0.22363,0.5-0.5v-2.92822h14v2.92822
		c0,0.27637,0.22363,0.5,0.5,0.5s0.5-0.22363,0.5-0.5V7.13623C16,4.36768,13.71094,3.63623,12.5,3.63623z M7.42871,10.06494V4.63623
		H12.5c0.10254,0,2.5,0.02832,2.5,2.5v2.92871H7.42871z"/>
</g>
</svg>
