<?xml version="1.0" encoding="utf-8"?>
<!-- Generator: Adobe Illustrator 21.1.0, SVG Export Plug-In . SVG Version: 6.00 Build 0)  -->
<svg version="1.1" id="Ebene_1" xmlns="http://www.w3.org/2000/svg" x="0px"
     y="0px"
     viewBox="0 0 16 16" style="enable-background:new 0 0 16 16;"
     xml:space="preserve">
<style type="text/css">
	.st0{fill:#202020;}
	.st1{fill:#1A1A18;}
</style>
<g>
	<path class="st0" d="M7.99451,0.48193c-4.13574,0-7.5,3.36426-7.5,7.5s3.36426,7.5,7.5,7.5s7.5-3.36426,7.5-7.5
		S12.13025,0.48193,7.99451,0.48193z M7.99451,14.48193c-3.58398,0-6.5-2.91602-6.5-6.5s2.91602-6.5,6.5-6.5s6.5,2.91602,6.5,6.5
		S11.57849,14.48193,7.99451,14.48193z"/>
	<path class="st0" d="M7.99414,2.57715c-2.08496,0-3.78125,1.69629-3.78125,3.78174c0,3.11133,3.27246,6.74707,3.41211,6.90039
		l0.37012,0.40674l0.37012-0.40674c0.13965-0.15332,3.41113-3.78906,3.41113-6.90039
		C11.77637,4.27344,10.08008,2.57715,7.99414,2.57715z M7.99512,12.15039c-0.83301-1.021-2.78223-3.63916-2.78223-5.7915
		c0-1.53369,1.24805-2.78174,2.78125-2.78174c1.53418,0,2.78223,1.24805,2.78223,2.78174
		C10.77637,8.51172,8.82812,11.12939,7.99512,12.15039z"/>
	<path class="st0" d="M7.99414,4.5459c-0.99902,0-1.8125,0.81348-1.8125,1.81299s0.81348,1.8125,1.8125,1.8125
		c1,0,1.81348-0.81299,1.81348-1.8125S8.99414,4.5459,7.99414,4.5459z M7.99414,7.17139c-0.44824,0-0.8125-0.36426-0.8125-0.8125
		S7.5459,5.5459,7.99414,5.5459s0.81348,0.36475,0.81348,0.81299S8.44238,7.17139,7.99414,7.17139z"/>
</g>
</svg>
