<?xml version="1.0" encoding="utf-8"?>
<!-- Generator: Adobe Illustrator 21.1.0, SVG Export Plug-In . SVG Version: 6.00 Build 0)  -->
<svg version="1.1" id="Ebene_1" xmlns="http://www.w3.org/2000/svg" x="0px"
     y="0px"
     viewBox="0 0 16 16" style="enable-background:new 0 0 16 16;"
     xml:space="preserve">
<style type="text/css">
	.st0{fill:#202020;}
	.st1{fill:#1A1A18;}
</style>
<path class="st0" d="M13.39062,8.26562c0.27637,0,0.5-0.22363,0.5-0.5s-0.22363-0.5-0.5-0.5H9.18604l2.05811-2.98438h2.14648
	c0.27637,0,0.5-0.22363,0.5-0.5s-0.22363-0.5-0.5-0.5h-1.45679l1.39917-2.02881c0.15723-0.22705,0.09961-0.53857-0.12695-0.69531
	c-0.22754-0.15527-0.53906-0.10107-0.69531,0.12793l-1.79053,2.59619H2.60938c-0.27637,0-0.5,0.22363-0.5,0.5s0.22363,0.5,0.5,0.5
	h7.42126L7.97241,7.26562H2.60938c-0.27637,0-0.5,0.22363-0.5,0.5s0.22363,0.5,0.5,0.5h4.67334L5.22461,11.25H2.60938
	c-0.27637,0-0.5,0.22363-0.5,0.5s0.22363,0.5,0.5,0.5h1.92554l-1.39917,2.02881c-0.15723,0.22705-0.09961,0.53857,0.12695,0.69531
	c0.08691,0.05957,0.18555,0.08838,0.28418,0.08838c0.1582,0,0.31445-0.07568,0.41113-0.21631L5.74854,12.25h7.64209
	c0.27637,0,0.5-0.22363,0.5-0.5s-0.22363-0.5-0.5-0.5H6.43811l2.05823-2.98438H13.39062z"/>
</svg>
