<?xml version="1.0" encoding="utf-8"?>
<!-- Generator: Adobe Illustrator 21.1.0, SVG Export Plug-In . SVG Version: 6.00 Build 0)  -->
<svg version="1.1" id="Ebene_1" xmlns="http://www.w3.org/2000/svg" x="0px"
     y="0px"
     viewBox="0 0 16 16" style="enable-background:new 0 0 16 16;"
     xml:space="preserve">
<style type="text/css">
	.st0{fill:#202020;}
	.st1{fill:#1A1A18;}
</style>
<g>
	<path class="st1" d="M11.32227,8.05713c2.16602,0,3.92871-1.76221,3.92871-3.92822c0-2.1665-1.7627-3.92871-3.92871-3.92871
		S7.39355,1.9624,7.39355,4.12891C7.39355,6.29492,9.15625,8.05713,11.32227,8.05713z M11.32227,1.2002
		c1.61523,0,2.92871,1.31396,2.92871,2.92871s-1.31348,2.92822-2.92871,2.92822S8.39355,5.74365,8.39355,4.12891
		S9.70703,1.2002,11.32227,1.2002z"/>
	<path class="st1" d="M13.19849,8.54358c0.02075,0.19806,0.03198,0.39886,0.03198,0.60236
		c0,3.17871-2.58691,5.76514-5.76562,5.76514S1.7002,12.32465,1.7002,9.14594c0-2.88184,2.12769-5.26984,4.89355-5.69202
		c0.05127-0.36176,0.13477-0.71124,0.26221-1.0423C3.41016,2.72089,0.7002,5.62097,0.7002,9.14594
		c0,3.73047,3.03418,6.76514,6.76465,6.76514s6.76562-3.03467,6.76562-6.76514c0-0.38947-0.04028-0.76904-0.10376-1.14069
		C13.8374,8.2149,13.53125,8.40198,13.19849,8.54358z"/>
</g>
</svg>
