<?xml version="1.0" encoding="utf-8"?>
<!-- Generator: Adobe Illustrator 21.1.0, SVG Export Plug-In . SVG Version: 6.00 Build 0)  -->
<svg version="1.1" id="Ebene_1" xmlns="http://www.w3.org/2000/svg" x="0px"
     y="0px"
     viewBox="0 0 16 16" style="enable-background:new 0 0 16 16;"
     xml:space="preserve">
<style type="text/css">
	.st0{fill:#202020;}
	.st1{fill:#1A1A18;}
</style>
<path class="st0" d="M12.24805,6.7998C11.5332,5.37158,10.08496,4.4668,8.4668,4.4668c-0.55322,0-1.07983,0.11676-1.56787,0.31305
	C6.43384,3.50244,5.20068,2.59961,3.7998,2.59961C1.98047,2.59961,0.5,4.08008,0.5,5.8999c0,1.31488,0.802,2.47601,1.95728,2.99896
	c-0.34509,0.46948-0.55786,1.04199-0.55786,1.66803c0,1.5625,1.27148,2.8335,2.83398,2.8335l7.48633-0.00098
	C14.02832,13.38867,15.5,11.9082,15.5,10.09961C15.5,8.2959,14.04492,6.8252,12.24805,6.7998z M1.5,5.8999
	c0-1.26855,1.03125-2.30029,2.2998-2.30029c1.03174,0,1.92908,0.7038,2.20593,1.67456
	c-0.8197,0.59021-1.4314,1.45782-1.66492,2.4856c-0.37939,0.05286-0.73083,0.18701-1.047,0.37506
	C2.26245,7.90063,1.5,6.97235,1.5,5.8999z M12.2168,12.40039H4.7334c-1.01172,0-1.83398-0.82227-1.83398-1.8335
	c0-1.00977,0.81934-1.83105,1.83691-1.83105c0.00195,0,0.00391,0,0.00586,0l0.46191,0.021l0.05664-0.4585
	C5.46191,6.68408,6.83984,5.4668,8.4668,5.4668c1.32715,0,2.50488,0.79785,3,2.03223l0.13867,0.34668l0.37207-0.03467
	c0.07324-0.00732,0.14746-0.01172,0.22266-0.01172c1.26855,0,2.2998,1.03174,2.2998,2.30029
	C14.5,11.35986,13.47461,12.39209,12.2168,12.40039z"/>
</svg>
