<?xml version="1.0" encoding="utf-8"?>
<!-- Generator: Adobe Illustrator 21.1.0, SVG Export Plug-In . SVG Version: 6.00 Build 0)  -->
<svg version="1.1" id="Ebene_1" xmlns="http://www.w3.org/2000/svg" x="0px"
     y="0px"
     viewBox="0 0 16 16" style="enable-background:new 0 0 16 16;"
     xml:space="preserve">
<style type="text/css">
	.st0{fill:#202020;}
	.st1{fill:#1A1A18;}
</style>
<g>
	<path class="st0" d="M15.55957,15.34375H0.47559l0.11328-0.59424c0.01953-0.10205,0.50879-2.50244,3.12305-2.97607
		c1.93262-0.3501,1.93262-0.83057,1.93262-1.14844v-0.53662C4.75977,9.19727,4.2373,7.84277,4.2373,6.41406v-2.25
		c0-2.67676,1.89941-3.875,3.78125-3.875s3.78125,1.19824,3.78125,3.875v2.25c0,1.43311-0.52441,2.79004-1.41309,3.68115V10.625
		c0,0.31006,0,0.7793,1.9375,1.14941c2.60352,0.49756,3.09863,2.87207,3.11816,2.97314L15.55957,15.34375z M1.78809,14.34375
		h12.4541c-0.2793-0.56299-0.87988-1.35254-2.10547-1.58691l0,0c-2.41699-0.46191-2.75-1.29785-2.75-2.13184V9.65674
		l0.16699-0.14941c0.78027-0.69678,1.24609-1.85303,1.24609-3.09326v-2.25c0-2.11963-1.43652-2.875-2.78125-2.875
		S5.2373,2.04443,5.2373,4.16406v2.25c0,1.23633,0.46387,2.39062,1.24121,3.08789l0.16602,0.14893V10.625
		c0,0.84814-0.33398,1.69385-2.75488,2.13281C2.66504,12.97949,2.06543,13.77734,1.78809,14.34375z"/>
</g>
</svg>
