<?xml version="1.0" encoding="utf-8"?>
<!-- Generator: Adobe Illustrator 21.1.0, SVG Export Plug-In . SVG Version: 6.00 Build 0)  -->
<svg version="1.1" id="Ebene_1" xmlns="http://www.w3.org/2000/svg" x="0px"
     y="0px"
     viewBox="0 0 16 16" style="enable-background:new 0 0 16 16;"
     xml:space="preserve">
<style type="text/css">
	.st0{fill:#202020;}
	.st1{fill:#1A1A18;}
</style>
<g>
	<path class="st0" d="M8.03906,0.46875c-2.86035,0-5.1875,2.32715-5.1875,5.1875c0,4.36133,4.62109,9.49512,4.81738,9.71143
		l0.37012,0.40674l0.37012-0.40674c0.19629-0.21631,4.81738-5.3501,4.81738-9.71143
		C13.22656,2.7959,10.89941,0.46875,8.03906,0.46875z M8.03906,14.26416c-1.08691-1.30225-4.1875-5.30908-4.1875-8.60791
		c0-2.30908,1.87891-4.1875,4.1875-4.1875s4.1875,1.87842,4.1875,4.1875C12.22656,8.95117,9.125,12.96143,8.03906,14.26416z"/>
	<path class="st0" d="M8.03906,3.28076c-1.30957,0-2.375,1.06543-2.375,2.375s1.06543,2.375,2.375,2.375s2.375-1.06543,2.375-2.375
		S9.34863,3.28076,8.03906,3.28076z M8.03906,7.03076c-0.75781,0-1.375-0.6167-1.375-1.375s0.61719-1.375,1.375-1.375
		s1.375,0.6167,1.375,1.375S8.79688,7.03076,8.03906,7.03076z"/>
</g>
</svg>
