<?xml version="1.0" encoding="utf-8"?>
<!-- Generator: Adobe Illustrator 21.1.0, SVG Export Plug-In . SVG Version: 6.00 Build 0)  -->
<svg version="1.1" id="Ebene_1" xmlns="http://www.w3.org/2000/svg" x="0px"
     y="0px"
     viewBox="0 0 16 16" style="enable-background:new 0 0 16 16;"
     xml:space="preserve">
<style type="text/css">
	.st0{fill:#202020;}
	.st1{fill:#1A1A18;}
</style>
<g>
	<g>
		<path class="st0" d="M15.34309,14.64984L10.5082,9.81495c0.8278-0.98619,1.32824-2.25571,1.32824-3.64096
			c0-3.12836-2.54489-5.67374-5.67374-5.67374c-3.12836,0-5.67374,2.54538-5.67374,5.67374s2.54538,5.67326,5.67374,5.67326
			c1.3855,0,2.6552-0.5005,3.64145-1.32824l4.83489,4.83489c0.09724,0.09724,0.22463,0.14586,0.35202,0.14586
			s0.25478-0.04862,0.35203-0.14586C15.53758,15.1594,15.53758,14.84433,15.34309,14.64984z M1.48474,6.17399
			c0-2.57942,2.09854-4.67796,4.67796-4.67796s4.67796,2.09854,4.67796,4.67796c0,2.57893-2.09854,4.67748-4.67796,4.67748
			S1.48474,8.75292,1.48474,6.17399z"/>
	</g>
</g>
</svg>
