<?xml version="1.0" encoding="utf-8"?>
<!-- Generator: Adobe Illustrator 21.1.0, SVG Export Plug-In . SVG Version: 6.00 Build 0)  -->
<svg version="1.1" id="Ebene_1" xmlns="http://www.w3.org/2000/svg" x="0px"
     y="0px"
     viewBox="0 0 16 16" style="enable-background:new 0 0 16 16;"
     xml:space="preserve">
<style type="text/css">
	.st0{fill:#202020;}
	.st1{fill:#1A1A18;}
</style>
<path class="st0" d="M12.30957,10.78125c-0.85742,0-1.60339,0.46106-2.021,1.14404l-4.9054-2.61865
	C5.63171,8.93134,5.77832,8.48285,5.77832,8c0-0.49469-0.15283-0.95398-0.4126-1.33472l4.7644-2.88214
	c0.36499,0.84326,1.20361,1.43561,2.17944,1.43561c1.30957,0,2.375-1.06543,2.375-2.375s-1.06543-2.375-2.375-2.375
	c-1.26904,0-2.30005,1.00311-2.36304,2.25684L4.59961,5.96021C4.24695,5.7525,3.84131,5.625,3.40332,5.625
	c-1.30957,0-2.375,1.06543-2.375,2.375s1.06543,2.375,2.375,2.375c0.44507,0,0.85693-0.13062,1.21338-0.34442l5.34546,2.85358
	c-0.0105,0.09039-0.02759,0.17889-0.02759,0.27209c0,1.30957,1.06543,2.375,2.375,2.375s2.375-1.06543,2.375-2.375
	S13.61914,10.78125,12.30957,10.78125z M12.30957,1.46875c0.75781,0,1.375,0.6167,1.375,1.375s-0.61719,1.375-1.375,1.375
	s-1.375-0.6167-1.375-1.375S11.55176,1.46875,12.30957,1.46875z M2.02832,8c0-0.7583,0.61719-1.375,1.375-1.375
	s1.375,0.6167,1.375,1.375s-0.61719,1.375-1.375,1.375S2.02832,8.7583,2.02832,8z M12.30957,14.53125
	c-0.75781,0-1.375-0.6167-1.375-1.375s0.61719-1.375,1.375-1.375s1.375,0.6167,1.375,1.375S13.06738,14.53125,12.30957,14.53125z"/>
</svg>
