<?xml version="1.0" encoding="utf-8"?>
<!-- Generator: Adobe Illustrator 21.1.0, SVG Export Plug-In . SVG Version: 6.00 Build 0)  -->
<svg version="1.1" id="Ebene_1" xmlns="http://www.w3.org/2000/svg" x="0px"
     y="0px"
     viewBox="0 0 16 16" style="enable-background:new 0 0 16 16;"
     xml:space="preserve">
<style type="text/css">
	.st0{fill:#202020;}
	.st1{fill:#1A1A18;}
</style>
<g>
	<g>
		<g>
			<path class="st1" d="M12.11469,15.10351c-0.19434,0-0.3916-0.0551-0.58496-0.16435l-3.5293-1.83774l-3.54443,1.84549
				c-0.4751,0.25425-0.98486,0.18078-1.23975-0.16918c-0.11963-0.16241-0.18359-0.36542-0.18359-0.58487
				c0-0.04834,0.00635-0.12954,0.02295-0.24071l0.68018-3.91718L0.84419,7.24934C0.61274,7.00185,0.50044,6.76114,0.50044,6.51318
				c0-0.17111,0.06445-0.74052,0.89209-0.8715l3.9707-0.57182l1.77686-3.55707c0.24902-0.5346,0.64648-0.61629,0.86035-0.61629
				c0.21338,0,0.60986,0.08169,0.86572,0.62741l1.771,3.54596l3.96387,0.57085c0.83496,0.13196,0.89941,0.70136,0.89941,0.87247
				c0,0.25763-0.12305,0.50995-0.36523,0.74969l-2.87012,2.77209l0.67871,3.90655c0.00977,0.0667,0.01562,0.14694,0.01562,0.25135
				c0,0.22428-0.0625,0.42149-0.18555,0.58777C12.62251,14.9875,12.38715,15.10351,12.11469,15.10351z M1.61372,6.61033
				l3.19727,3.07854l-0.75537,4.34834l3.94482-2.05333l3.94531,2.05333l-0.75488-4.34834l3.18945-3.08L9.97309,5.9747
				L8.00043,2.02369L6.0273,5.9747L1.61372,6.61033z M1.4272,6.65189L1.4272,6.65189L1.4272,6.65189z"/>
		</g>
	</g>
</g>
</svg>
