<?xml version="1.0" encoding="utf-8"?>
<!-- Generator: Adobe Illustrator 21.1.0, SVG Export Plug-In . SVG Version: 6.00 Build 0)  -->
<svg version="1.1" id="Ebene_1" xmlns="http://www.w3.org/2000/svg" x="0px"
     y="0px"
     viewBox="0 0 16 16" style="enable-background:new 0 0 16 16;"
     xml:space="preserve">
<style type="text/css">
	.st0{fill:#202020;}
	.st1{fill:#1A1A18;}
</style>
<path class="st0" d="M14.34375,3.28076h-3.95312V2.60889c0-0.66357-0.54004-1.20312-1.20312-1.20312H6.84473
	c-0.66309,0-1.20312,0.53955-1.20312,1.20312v0.67188H1.6875c-0.66309,0-1.20312,0.53955-1.20312,1.20312v7.96875
	c0,0.66357,0.54004,1.20312,1.20312,1.20312h1.1416v0.43848c0,0.27637,0.22363,0.5,0.5,0.5s0.5-0.22363,0.5-0.5v-0.43848h8.375
	v0.43848c0,0.27637,0.22363,0.5,0.5,0.5s0.5-0.22363,0.5-0.5v-0.43848h1.13965c0.66309,0,1.20312-0.53955,1.20312-1.20312V4.48389
	C15.54688,3.82031,15.00684,3.28076,14.34375,3.28076z M6.6416,2.60889c0-0.11182,0.09082-0.20312,0.20312-0.20312H9.1875
	c0.1123,0,0.20312,0.09131,0.20312,0.20312v0.67188H6.6416V2.60889z M1.6875,12.65576c-0.1123,0-0.20312-0.09131-0.20312-0.20312
	V4.48389c0-0.11182,0.09082-0.20312,0.20312-0.20312h1.1416v8.375H1.6875z M3.8291,12.65576v-8.375h1.8125v0.7002l-0.9375,0.9375
	v3.51953h2.875V5.91846l-0.9375-0.9375v-0.7002h5.5625v8.375H3.8291z M6.5791,6.33252v2.10547h-0.875V6.33252l0.4375-0.4375
	L6.5791,6.33252z M14.54688,12.45264c0,0.11182-0.09082,0.20312-0.20312,0.20312H13.2041v-8.375h1.13965
	c0.1123,0,0.20312,0.09131,0.20312,0.20312V12.45264z"/>
</svg>
