<?xml version="1.0" encoding="utf-8"?>
<!-- Generator: Adobe Illustrator 21.1.0, SVG Export Plug-In . SVG Version: 6.00 Build 0)  -->
<svg version="1.1" id="Ebene_1" xmlns="http://www.w3.org/2000/svg" x="0px"
     y="0px"
     viewBox="0 0 16 16" style="enable-background:new 0 0 16 16;"
     xml:space="preserve">
<style type="text/css">
	.st0{fill:#202020;}
	.st1{fill:#1A1A18;}
</style>
<g>
	<path class="st0" d="M8.39978,6.28015C8.39941,6.2796,8.39917,6.27905,8.39893,6.2785L6.82227,3.47705V3.47656
		C6.6123,3.104,6.16504,2.87305,5.6543,2.87305H5.65332c-0.50781,0-0.9541,0.23145-1.16309,0.604L0.5332,10.5083
		c-0.08691,0.15479-0.08594,0.34424,0.00391,0.49756s0.25391,0.24756,0.43164,0.24756h9.375
		c0.17773,0,0.3418-0.09424,0.43164-0.24756s0.09082-0.34277,0.00391-0.49756L8.39978,6.28015z M5.36133,3.96729
		C5.37988,3.93457,5.48438,3.87305,5.6543,3.87305s0.27832,0.0625,0.29688,0.09424l1.01025,1.79553L6.24805,5.58154
		c-0.11523-0.03076-0.23926-0.0166-0.34668,0.03711L5.23242,5.95312L4.52661,5.45074L5.36133,3.96729z M1.82422,10.25342
		l2.20923-3.92633l0.86401,0.61481c0.15039,0.10693,0.34863,0.12158,0.51367,0.04004l0.77148-0.38574l1.45605,0.37l1.84961,3.28723
		H1.82422z"/>
	<path class="st0" d="M15.4668,10.5083l-3.01562-5.35986c-0.18164-0.3208-0.5625-0.52002-0.99414-0.52002c0,0,0,0-0.00098,0
		c-0.42969,0.00049-0.80957,0.19971-0.99023,0.521L9.43945,6.9751c-0.13574,0.24072-0.0498,0.54541,0.19043,0.68115
		c0.20874,0.11755,0.46143,0.05988,0.61426-0.1142l0.56641,0.40375c0.14941,0.10693,0.34766,0.12256,0.51367,0.04004l0.54883-0.2749
		l1.01819,0.25922l1.28455,2.28326h-2.42676c-0.27637,0-0.5,0.22363-0.5,0.5s0.22363,0.5,0.5,0.5h3.28223
		c0.17773,0,0.3418-0.09424,0.43164-0.24756S15.55371,10.66309,15.4668,10.5083z M11.93848,6.69629
		c-0.11621-0.03174-0.24121-0.0166-0.34668,0.03711l-0.44629,0.22314l-0.39294-0.28003l0.57068-1.01831
		c0.0498-0.04004,0.2207-0.03857,0.25684-0.01855l0.63391,1.12677L11.93848,6.69629z"/>
</g>
</svg>
