<?xml version="1.0" encoding="utf-8"?>
<!-- Generator: Adobe Illustrator 21.1.0, SVG Export Plug-In . SVG Version: 6.00 Build 0)  -->
<svg version="1.1" id="Ebene_1" xmlns="http://www.w3.org/2000/svg" x="0px"
     y="0px"
     viewBox="0 0 16 16" style="enable-background:new 0 0 16 16;"
     xml:space="preserve">
<style type="text/css">
	.st0{fill:#202020;}
	.st1{fill:#1A1A18;}
</style>
<g>
	<path class="st0" d="M8,0.5C3.86426,0.5,0.5,3.86426,0.5,8s3.36426,7.5,7.5,7.5s7.5-3.36426,7.5-7.5S12.13574,0.5,8,0.5z M8,14.5
		c-3.58398,0-6.5-2.91602-6.5-6.5S4.41602,1.5,8,1.5s6.5,2.91602,6.5,6.5S11.58398,14.5,8,14.5z"/>
	<path class="st0" d="M9.02942,8.31635C9.06079,8.21442,9.09326,8.11224,9.09326,8c0-0.41553-0.24036-0.7644-0.58154-0.94952
		l0.06055-4.40302c0.00391-0.27588-0.2168-0.50293-0.49316-0.50684c-0.00195,0-0.00488,0-0.00684,0
		c-0.27344,0-0.49609,0.21924-0.5,0.49316L7.51172,7.03406C7.15625,7.2146,6.90576,7.57391,6.90576,8
		c0,0.60406,0.48975,1.09375,1.09375,1.09375c0.11621,0,0.22241-0.03253,0.32739-0.0661l2.46802,2.29169
		c0.0957,0.08936,0.21777,0.13379,0.33984,0.13379c0.13379,0,0.26758-0.05371,0.36621-0.15967
		c0.18848-0.20264,0.17676-0.51904-0.02637-0.70654L9.02942,8.31635z"/>
</g>
</svg>
