<?xml version="1.0" encoding="utf-8"?>
<!-- Generator: Adobe Illustrator 21.1.0, SVG Export Plug-In . SVG Version: 6.00 Build 0)  -->
<svg version="1.1" id="Ebene_1" xmlns="http://www.w3.org/2000/svg" x="0px"
     y="0px"
     viewBox="0 0 16 16" style="enable-background:new 0 0 16 16;"
     xml:space="preserve">
<style type="text/css">
	.st0{fill:#202020;}
	.st1{fill:#1A1A18;}
</style>
<g>
	<path class="st1" d="M8,5.6875c1.05078,0,1.90625-0.85498,1.90625-1.90625S9.05078,1.875,8,1.875S6.09375,2.72998,6.09375,3.78125
		S6.94922,5.6875,8,5.6875z M8,2.875c0.5,0,0.90625,0.40674,0.90625,0.90625S8.5,4.6875,8,4.6875S7.09375,4.28076,7.09375,3.78125
		S7.5,2.875,8,2.875z"/>
	<path class="st1" d="M8,9.90625c1.05078,0,1.90625-0.85498,1.90625-1.90625S9.05078,6.09375,8,6.09375S6.09375,6.94873,6.09375,8
		S6.94922,9.90625,8,9.90625z M8,7.09375c0.5,0,0.90625,0.40674,0.90625,0.90625S8.5,8.90625,8,8.90625S7.09375,8.49951,7.09375,8
		S7.5,7.09375,8,7.09375z"/>
	<path class="st1" d="M8,14.125c1.05078,0,1.90625-0.85498,1.90625-1.90625S9.05078,10.3125,8,10.3125
		s-1.90625,0.85498-1.90625,1.90625S6.94922,14.125,8,14.125z M8,11.3125c0.5,0,0.90625,0.40674,0.90625,0.90625
		S8.5,13.125,8,13.125s-0.90625-0.40674-0.90625-0.90625S7.5,11.3125,8,11.3125z"/>
	<path class="st1" d="M15.68945,3.66064V1.47705l-2.73633,0.06024V0H3.04688v1.53729L0.31055,1.47705v2.18359l2.73633,1.84399
		v0.48578L0.31055,5.93018v2.18359l2.73633,1.84399v0.48578L0.31055,10.3833v2.18359l2.73633,1.84399V16h9.90625v-1.58911
		l2.73633-1.84399V10.3833l-2.73633,0.06024V9.95776l2.73633-1.84399V5.93018l-2.73633,0.06024V5.50464L15.68945,3.66064z
		 M14.68945,2.49951v0.62891l-1.73633,1.17053V2.53778L14.68945,2.49951z M1.31055,3.12842V2.49951l1.73633,0.03827v1.76117
		L1.31055,3.12842z M1.31055,7.58154V6.95264l1.73633,0.03827v1.76117L1.31055,7.58154z M1.31055,12.03467v-0.62891l1.73633,0.03827
		v1.76117L1.31055,12.03467z M11.95312,15H4.04688V1h7.90625V15z M14.68945,11.40576v0.62891l-1.73633,1.17053v-1.76117
		L14.68945,11.40576z M14.68945,6.95264v0.62891l-1.73633,1.17053V6.99091L14.68945,6.95264z"/>
</g>
</svg>
