<?xml version="1.0" encoding="utf-8"?>
<!-- Generator: Adobe Illustrator 21.1.0, SVG Export Plug-In . SVG Version: 6.00 Build 0)  -->
<svg version="1.1" id="Ebene_1" xmlns="http://www.w3.org/2000/svg" x="0px"
     y="0px"
     viewBox="0 0 16 16" style="enable-background:new 0 0 16 16;"
     xml:space="preserve">
<style type="text/css">
	.st0{fill:#202020;}
	.st1{fill:#1A1A18;}
</style>
<g>
	<path class="st0" d="M13.65625,11.51514V1.67188c0-0.66357-0.54004-1.20312-1.20312-1.20312H3.54688
		c-0.66309,0-1.20312,0.53955-1.20312,1.20312v9.84326c0,0.66357,0.54004,1.20312,1.20312,1.20312h0.23779l-1.35693,2.03564
		c-0.15332,0.22998-0.09082,0.54004,0.13867,0.69336c0.08496,0.05664,0.18164,0.08398,0.27734,0.08398
		c0.16113,0,0.31934-0.07812,0.41602-0.22266l0.47656-0.71484h8.5271l0.47681,0.71484
		c0.09668,0.14453,0.25488,0.22266,0.41602,0.22266c0.0957,0,0.19238-0.02734,0.27734-0.08398
		c0.22949-0.15332,0.29199-0.46387,0.13867-0.69336l-1.35754-2.03564h0.2384C13.11621,12.71826,13.65625,12.17871,13.65625,11.51514
		z M12.65625,7.96826h-9.3125v-3.6875h9.3125V7.96826z M3.54688,1.46875h8.90625c0.1123,0,0.20312,0.09131,0.20312,0.20312v1.60889
		h-9.3125V1.67188C3.34375,1.56006,3.43457,1.46875,3.54688,1.46875z M3.34375,11.51514V8.96826h9.3125v2.54688
		c0,0.11182-0.09082,0.20312-0.20312,0.20312H3.54688C3.43457,11.71826,3.34375,11.62695,3.34375,11.51514z M11.59668,13.59375
		H4.40283l0.5835-0.87549h6.02637L11.59668,13.59375z"/>
	<path class="st0" d="M7.0625,2.87451h1.875c0.27637,0,0.5-0.22363,0.5-0.5s-0.22363-0.5-0.5-0.5h-1.875
		c-0.27637,0-0.5,0.22363-0.5,0.5S6.78613,2.87451,7.0625,2.87451z"/>
	<circle class="st0" cx="4.71875" cy="10.34326" r="0.96875"/>
	<circle class="st0" cx="11.28125" cy="10.34326" r="0.96875"/>
</g>
</svg>
