<?xml version="1.0" encoding="utf-8"?>
<!-- Generator: Adobe Illustrator 15.0.2, SVG Export Plug-In . SVG Version: 6.00 Build 0)  -->
<!DOCTYPE svg PUBLIC "-//W3C//DTD SVG 1.1//EN" "http://www.w3.org/Graphics/SVG/1.1/DTD/svg11.dtd">
<svg version="1.1" id="Layer_1" xmlns="http://www.w3.org/2000/svg" xmlns:xlink="http://www.w3.org/1999/xlink" x="0px" y="0px"
	 width="15.79px" height="15.792px" viewBox="0 0 15.79 15.792" enable-background="new 0 0 15.79 15.792" xml:space="preserve">
<g>
	<polygon points="8,4 6,4 6,6 4,6 4,8 6,8 6,10 8,10 8,8 10,8 10,6 8,6 	"/>
	<path fill-rule="evenodd" clip-rule="evenodd" d="M7,12c-2.76,0-5-2.24-5-5s2.24-5,5-5c2.75,0,5,2.24,5,5S9.75,12,7,12z
		 M15.64,13.53l-2.75-2.76C13.59,9.68,14,8.39,14,7c0-3.87-3.14-7-7-7C3.13,0,0,3.13,0,7s3.13,7,7,7c1.39,0,2.68-0.41,3.77-1.11
		l2.75,2.76c0.2,0.19,0.51,0.19,0.71,0l1.41-1.42C15.84,14.04,15.84,13.72,15.64,13.53z"/>
</g>
</svg>
