<?xml version="1.0" encoding="utf-8"?>
<!-- Generator: Adobe Illustrator 15.0.2, SVG Export Plug-In . SVG Version: 6.00 Build 0)  -->
<!DOCTYPE svg PUBLIC "-//W3C//DTD SVG 1.1//EN" "http://www.w3.org/Graphics/SVG/1.1/DTD/svg11.dtd">
<svg version="1.1" id="Layer_1" xmlns="http://www.w3.org/2000/svg" xmlns:xlink="http://www.w3.org/1999/xlink" x="0px" y="0px"
	 width="17.997px" height="16px" viewBox="0 0 17.997 16" enable-background="new 0 0 17.997 16" xml:space="preserve">
<path fill-rule="evenodd" clip-rule="evenodd" d="M0,5.18v5.75h2.83l5.38,4.15V0.92L2.83,5.18H0z M11.72,3.13L10.2,4.69
	c0.53,0.55,0.91,1.2,1.12,1.9c0.49,1.61,0.12,3.45-1.12,4.72l1.52,1.56c1.35-1.37,2-3.19,1.97-5C13.65,6.15,13,4.44,11.72,3.13z
	 M14.77,0l-1.64,1.68c1.86,1.9,2.7,4.45,2.53,6.95c-0.14,2.07-0.98,4.11-2.53,5.69L14.77,16c1.67-1.71,2.69-3.82,3.06-6.04
	C18.43,6.45,17.41,2.71,14.77,0z"/>
</svg>
