<svg xmlns="http://www.w3.org/2000/svg" role="img" title="Language switcher" viewBox="0 0 440 510"><path fill="currentcolor" d="m311.699 445.631 29.801 49.038 15.713-45.555zM77.125 170.74c-1.117-1.096 1.454 8.966 5.033 12.585 6.345 6.403 11.301 7.228 13.939 7.334 5.84.233 13.046-1.455 17.325-3.248 4.141-1.768 11.397-5.473 14.143-10.878.582-1.155 2.171-3.096 1.173-7.889-.757-3.687-3.104-4.978-5.966-4.773-2.861.193-11.523 2.504-15.713 3.793-4.191 1.272-12.824 3.901-16.588 4.717-3.753.814-12.029-.379-13.346-1.64m106.088 120.275c-1.657-.602-35.938-14.807-40.798-17.134-3.977-1.913-13.726-6.037-18.314-7.909 12.921-19.929 21.078-34.968 22.163-37.259 2.011-4.191 15.688-30.962 16.006-32.61.31-1.669.7-7.839.399-9.306-.302-1.494-5.316 1.38-12.125 3.689-6.819 2.299-19.779 10.729-24.784 11.788-5.023 1.047-21.078 7.131-29.294 9.858-8.216 2.726-23.755 7.472-30.147 9.197-6.402 1.728-11.989 1.865-15.57 2.95 0 0 .477 5.016 1.427 6.52.94 1.504 4.327 5.191 8.264 6.222 3.939 1.036 10.457.619 13.426-.058 2.968-.69 8.108-3.203 8.797-4.3.698-1.115-.359-4.551.815-5.589 1.184-1.027 16.829-4.686 22.737-6.471 5.906-1.817 28.518-9.606 31.583-9.209-.97 3.221-19.159 39.258-25.016 50.009-5.86 10.75-39.896 58.044-47.142 66.377-5.501 6.335-18.829 22.548-23.445 26.207 1.164.321 9.418-.387 10.922-1.318 9.369-5.774 24.977-25.209 30.003-31.128 14.938-17.524 28.062-35.93 38.468-51.726h.011c2.028.844 18.42 14.203 22.697 17.165 4.278 2.959 21.157 12.38 24.814 13.941 3.658 1.583 17.712 8.065 18.304 5.871.59-2.212-2.543-15.147-4.201-15.777" transform-origin="220px 255px"/><path d="M103.997 469.596c3.285 2.007 6.387 3.65 9.854 5.293 6.935 3.468 14.781 7.119 22.263 9.857q15.328 5.75 30.657 9.308c5.657 1.279 11.861 2.374 17.883 3.287.547 0 16.788 2.007 20.072 2.007h16.424c6.387-.546 12.409-.912 18.796-1.825 5.109-.73 10.766-1.642 16.241-2.921 4.014-.913 8.212-1.825 12.226-3.102 3.832-1.096 8.211-2.556 12.408-4.017 2.738-.912 5.658-2.189 8.577-3.285a177 177 0 0 1 8.03-3.469c3.284-1.459 7.116-3.468 10.766-5.293 2.919-1.46 6.205-3.285 9.307-5.111 2.372-1.277 7.846-5.476 10.766-5.476 3.284 0 5.474 2.921 5.474 5.477 0 5.293-7.116 6.936-10.402 9.309-3.467 2.373-7.664 4.198-11.313 6.206-7.3 3.833-14.781 7.119-21.898 9.857-9.307 3.468-19.525 6.754-28.649 8.943-3.468.731-6.935 1.644-10.402 2.192-1.825.364-20.803 3.285-26.095 3.285h-24.087c-6.386-.547-13.138-1.277-19.525-2.191-5.656-.913-11.678-2.007-17.335-3.286-4.38-.912-9.124-2.189-13.322-3.468-7.298-2.007-14.416-4.563-21.35-7.301-12.59-4.745-25.73-10.951-38.138-19.165-2.19-1.461-2.372-2.921-2.372-4.565 0-2.737 2.006-5.293 5.292-5.293 2.919 0 8.758 4.198 9.853 4.747" fill-rule="evenodd" clip-rule="evenodd" fill="currentcolor" transform-origin="220px 255px"/><path d="m438.894 137.937-40.737-12.97V5.958c0-3.468-2.555-5.84-5.84-5.84-2.554 0-84.853 28.292-91.423 30.666-22.317 7.44-86.733 29.719-86.733 29.719q-2.376.698-4.737 1.448L52.202 6.445a1.825 1.825 0 0 0-2.433 1.721V114.84C25.382 123.007 7.992 128.854 7.1 129.169c-1.643.548-4.197.913-5.658 2.92-.729.73-.912 2.009-1.277 2.921v306.84c0 .365.183.547.183.73 1.094 2.373 3.102 3.833 5.292 3.833 2.737 0 208.211-68.998 212.773-70.823.215-.072.458-.241.697-.437l218.677 69.719a1.824 1.824 0 0 0 2.378-1.739V139.676c0-.795-.513-1.499-1.271-1.739M210.201 366.828l-198.904 66.26V139.573l198.904-66.259zM387.025 13.26v108.162L222.657 69.093zm-20.227 329.447-10.513-38.412-60.471-18.332-13.003 31.289-29.27-8.882 62.131-152.516 28.487 8.632 51.9 187.101z" fill="currentcolor" transform-origin="220px 255px"/><path d="m306.994 257.858 39.899 12.098-18.197-64.57z" fill="currentcolor" transform-origin="220px 255px"/></svg>
