<?xml version="1.0" encoding="UTF-8"?>
<svg id="Layer_1" data-name="Layer 1" xmlns="http://www.w3.org/2000/svg" xmlns:xlink="http://www.w3.org/1999/xlink" viewBox="0 0 235.29 232.57">
  <defs>
    <style>
      .cls-1 {
        clip-path: url(#clippath);
      }

      .cls-2 {
        fill: none;
      }

      .cls-2, .cls-3, .cls-4 {
        stroke-width: 0px;
      }

      .cls-3 {
        fill: #dc8633;
      }

      .cls-4 {
        fill: #fff;
      }
    </style>
    <clipPath id="clippath">
      <path class="cls-2" d="m235.29,215.11c0,9.65-7.59,17.47-16.95,17.47H16.94c-9.35,0-16.94-7.81-16.94-17.47V17.46C0,7.81,7.58,0,16.94,0h201.4c9.35,0,16.95,7.81,16.95,17.46v197.64Z"/>
    </clipPath>
  </defs>
  <g class="cls-1">
    <path class="cls-3" d="m235.29,215.11c0,9.65-7.59,17.47-16.95,17.47H16.94c-9.35,0-16.94-7.81-16.94-17.47V17.46C0,7.81,7.58,0,16.94,0h201.4c9.35,0,16.95,7.81,16.95,17.46v197.64Z"/>
    <g>
      <path class="cls-4" d="m41.82,204.79c-.25-4.74-.55-10.45-.5-14.68h-.15c-1.16,3.99-2.57,8.22-4.29,12.92l-6,16.5h-3.33l-5.5-16.2c-1.61-4.79-2.98-9.18-3.94-13.22h-.1c-.1,4.24-.35,9.94-.66,15.04l-.91,14.58h-4.19l2.37-34.01h5.6l5.8,16.45c1.41,4.19,2.57,7.92,3.43,11.46h.15c.86-3.43,2.07-7.17,3.58-11.46l6.06-16.45h5.6l2.12,34.01h-4.29l-.86-14.94Z"/>
      <path class="cls-4" d="m58.13,185.72v20.13c0,7.62,3.38,10.85,7.92,10.85,5.05,0,8.28-3.33,8.28-10.85v-20.13h4.44v19.83c0,10.45-5.5,14.73-12.87,14.73-6.96,0-12.21-3.99-12.21-14.53v-20.03h4.44Z"/>
      <path class="cls-4" d="m86.39,185.72h4.39v16.4h.15c.91-1.31,1.82-2.52,2.67-3.63l10.4-12.77h5.45l-12.31,14.43,13.27,19.58h-5.2l-11.2-16.7-3.23,3.73v12.97h-4.39v-34.01Z"/>
      <path class="cls-4" d="m118.13,185.72v20.13c0,7.62,3.38,10.85,7.92,10.85,5.05,0,8.28-3.33,8.28-10.85v-20.13h4.44v19.83c0,10.45-5.5,14.73-12.87,14.73-6.96,0-12.21-3.99-12.21-14.53v-20.03h4.44Z"/>
      <path class="cls-4" d="m146.39,186.17c2.22-.45,5.4-.71,8.43-.71,4.69,0,7.72.86,9.84,2.78,1.72,1.51,2.68,3.83,2.68,6.46,0,4.49-2.83,7.47-6.41,8.68v.15c2.62.91,4.19,3.33,4.99,6.86,1.11,4.74,1.92,8.02,2.62,9.33h-4.54c-.56-.96-1.31-3.89-2.27-8.12-1.01-4.69-2.83-6.46-6.81-6.61h-4.14v14.73h-4.39v-33.56Zm4.39,15.49h4.49c4.69,0,7.67-2.57,7.67-6.46,0-4.39-3.18-6.31-7.82-6.36-2.12,0-3.63.2-4.34.4v12.41Z"/>
      <path class="cls-4" d="m180.46,189.45h-10.34v-3.73h25.18v3.73h-10.39v30.28h-4.44v-30.28Z"/>
      <path class="cls-4" d="m203.47,185.72v20.13c0,7.62,3.38,10.85,7.92,10.85,5.04,0,8.28-3.33,8.28-10.85v-20.13h4.44v19.83c0,10.45-5.5,14.73-12.87,14.73-6.96,0-12.21-3.99-12.21-14.53v-20.03h4.44Z"/>
    </g>
    <g>
      <path class="cls-4" d="m-.58,116.37c.89-1.86,2.58-3.06,4.43-4.1,1.85-1.03,3.77-2,5.08-3.62.34-.32.5,1.05,1.23.27,1.21-1.66,3.26-3.02,5.57-4.11,2.3-1.1,4.95-1.77,7.26-2.28l-.1.42c.88-.19,1.33-1.68,2.25-1.92.1.19-.13.4.19.58-.08-.69,1.38-.99,1.53-1.6.44.07.63.56,1.18.62l.16-.9c.59-2.24,3.28-1.44,4.79-3.03-.02.2-.15.4.06.49,1.28-1.12,2.88-2.05,4.57-2.89,1.71-.78,3.5-1.5,5.14-2.33-.05.3-.01.8.29,1-.1-.8.88-1.4,1.77-1.83.68.63,1.36-1.22,2.6-1.15l-.04.2c.55-1.07,1.34.08,1.7-1.1l.7.44c.02-1.22,1.34.2,1.85-.53l-.09-.22c.56-.44,1.05.02,1.59-.33l.09.11c1.31-.67,2.27-.28,2.01-1.13.67.56-1.26.68-.23,1.47,4.3-2.13,9.15-2.94,13.82-3.75.59.26.94.3,1.11.63.44-.24,1.74-.39,2.11-.9-.16.04.36.41.62.42.89.22.81-1.09,1.8-.82-.35.28-.44.58-.27.9.72-.79,1.8-.84,2.73-1.12-.13.16-.35.27-.29.54.97-.87,1.91,0,2.78-.56l-.3.54c1.51.5.35-1.11,1.65-.84-.29.19-.17.38-.21.59,1.12-1.06,3.07-.8,4.24-1.16-.07.07-.04.21-.04.21,1.29-.14,2.65.04,4.07-.34.52.23-.16,1.25,1.2,1.08-.05-1.03,2.33-.4,1.54-1.57.59.09,1.34.24,2.05.32.71.09,1.37.16,1.76,0-.54.36.51,1.29-.46,1.32l.7.67c-.13.41-.74-.19-.53.36.48-.02,1.91-.34,2.33-.15.93-.56,1.85-1.75,3.32-1.7-.72.33.29,1.17-.19,1.3l2.22-1.75c.49,0,.02.82.75.63,0-.28.32-.41.56-.61.17.13,2.07-.03,2.14,1.02.16.42-.81.09-.33.53.89.12.98-.22,1.87-.1v.14c.56.24,1.8-.17,1.24-.82-.41-.09.06.63-.5.24.5-.52,1.58-.53,2.48-.4-.33.11-.34.39-.51.65,1.34-.6,2.65-.57,4.07-.64.11-.47-.67.76-.82.47,1.58.98,3.76-.24,4.96,1.09-.25.03.03-.7.02-.56.81.26.61.93,1.2.81-.04.41.7.03,1.29.05.36-.22.09.23-.4.16.86-.2,4.08.09,5.67,1.16.04-.27,1.37-.65,1.76-.49l-.34.55c.25.48,1.35.39,1.26.93.54-.23-.33-.34-1.16-.42-.84-.08-1.66-.07-.99-.2.15.58,1.91-.46,1.41.28.8.24,1.81-.18,2.38.64-.19-.17-.92.62-.27.79,1.17.27.42-.18,1.41-.08l.66-.05c.25-.58.98.44.79-.37-.03.53,1.75.32,1.28,1.24l-.43.7c.5.12,1.09-.5,1.59-.69.04.09.11.29.04.41.52-1.13,1.12.53,2.05-.14.86.78,2.55,1.1,2.73,2,.91-.02,1.8-.13,2.57.48-.22.03-.48-.04-.63.19.41.56.67.32,1.25.37-.19.12.79,1.16,1.2,1.84.9.01.93-.71,1.18-1.04.16,1.43,2.48.26,2.84,1.71-.33.02-1.34,0-.86.58.13,1.43,1.76-.12,2.58.96l.19-1.04c.2.8,1.88.29,1.29,1.15.54-.14,1.12.96,1.46.03,1.35,1.71,4.57,1.9,4.72,4.09.33,0,.86.51.99,0-.13-.72-.77,0-.74-.41.24.11.42-.1.51-.2.42.51.81.82-.11,1.23.87,1.23,2.09-.71,3.41.52-.28.31-.25.51.22.73l1.2-.07c.88.75.05,1.14-.29,1.73.58.22,1.18.65,1.7.37l.15,1.12c-.11-.81.65-.08.98-.07h-.33c-.06.29.61.53.96.66.16-.4-.33-.96-.59-1.27.43-.09.79.25,1.33.18-.49.49.55.96.92,1.29.38.43.86-.15.98-.04-.19.3.72.56.08.72-.22-.01-.17-.53-.6-.45.15.42-.23.9.65.96.66.04.64-1.18,1.29-.22-.33-.02-.53.17-.85.25l.64.86.39-.48c.02.21-.09.2-.08.3.62-.35,1.37.74,1.99.28.46.25.63.98.98,1.32h-.11c.27.63,1.06.9,1.71.87l-.1.09c.23.24.9.63,1.45.59.38.87-1.19,2.03,0,1.96.67.49,1.73-.1,1.71-.62.95,1.23,2.9,1.54,3.39,3.16.33-.06.32-.27.76-.1,1.58,1.56,4.06,2.45,4.62,4.5-.66-.22-.44.44-.66.71.76-.07.1.85.86.26.33-.46.55-.62.23-1.21,1.19.65,2.69,1.99,2.89,2.86-.1-.43.23-.37.55-.31-.67.6-.03,1.34.72,1.61l.44-.33-.03.74c.32.06,1-.62,1.18.26-.11.18-.23.37-.24.57.86.19,2.17.37,2.45,1.28l-.06,1.04c.31.18,1.07.25.78-.34.68,1.33,1.29,2,1.13,2.8,2.9.51,5.45,2.99,7.3,5.13l-.35.22c.25.81.79-.2.95.38-.45.09-.22,1-.97.89.44,1.07,1.47.54,2.08.93.46-.28-.63-.19-.05-.55.22-.04.71,1.39,1.42.97-.05.42-.63.66-.97.77l.74.22c-.15,1.23-2.49-.22-2.77,1.2l.5.36c-.23,1-1.78-.53-.97.78.74.21,1.98-.16,1.85-.83,1.09.87,1.86-.83,2.8.33-.08.62-.88-.81-1.18-.15-.01.95,1.2.8,1.45,1.42-.23-.72.76-.83,1.17-.59.22.82-.9.14-.25,1,.47-.18,1.38.33,1.06-.52,1.05-.41.52,1.03,1.53.93-.33.75-2.03.3-1.53,1.43.42-.61,1.68.47,2.08-.7.15.49-.25.89-.8.92.09.79,2.03.37,1.09,1.45l.7-.3c-.05.31,0,.65-.07,1.16.37.44,1.96.8,1.08,1.47.21.07,1.01,1.12,1.28.24-.17-.93-1.03-.37-.54-1.39-.27.99.85.85,1.37,1.04l-.28.33c.31.11.66.68,1.13.52-.33-.01-.48.26-.42.5l.7-.18c.98.69-.71.93.14,1.69l-.93-.35c.2.08-.03.76.46,1.05.59-.21,1.39-.35,1.87-.5.6.33-.34.64.52.75l-1.07-.19c-.23.03-.42,1.04.12,1.69.5.29,1.69.42,1.42-.45.27.33.35,1.02-.2,1.02.75.63.42-.5,1.23-.07-.1.51.1,1.7.04,2.55l-1.32-.07.34.46c-1.08-.1-.25.67-1.17.85.14.39.65.59,1.06.75.37-1.73,2.24-.1,3.01-1.1,1.22,1.06-1.79,2.58.74,2.74.09-.41,1.31-.35.42-.93.48.86,1.39-.21,1.67,1.03-.91-.39-.45,1.48-1.77.92.38-.18-.16-.74-.37-.82-.14.6-1.04.67-.45,1.47.45.42.97,1.08,1.41.6.55-.44-.61-.7.19-.81.92.84.17,1.63,1.48,1.3-.54-.56-.07-1.14.33-1.42l.77.55-.48.13c.58,1.36.94-.16,1.65,1.05l-.37,1.07c-.84.19-.89-1.86-1.8-.89.49.76,1.19.63,1.42,1.51-.2-.09-.38-.28-.58-.37.15.29-1.05,1.55.51,2.01.7.31.48-.12.88-.39.96,1.1,1.6,1.18,2.2,1.9-.89.38.87,1.41-.52,1.11.18-.7-1.06-2.4-2.09-2.3-.61,1.07-.53-1.02-1.63-.61.65.96-.28,1.55-.76,2.11.14.29.57.37.77.46.63-.28.39-.62.94-1.04.59,1.16,1.61,1.97,2.56,2.18-.03.55-.67.82-1.01.43,1.03,1.15,1.88,2.56,2.51,3.89.4-1.4,1.11,1.21,1.53.17-.22-.79.06-1.79.71-1.7.21.45-.41.25-.5.56.85.19-.27,1.34.86,1.33-1.08-.98-1.28.51-2.15.78.96.57-.54.3,0,1.14.95.57,1.94,1.41,2.7,2.25.06,1.63,1.89,3.02,2.57,4.08-.03.79-1.1.92-.87,1.62.45.7.59-1.08.84.21h-.23c.39.2.6,2.28,1.99,1.88l-1.11.21c.03.25.35.31.55.41-.29.19-.43.57-.81.37-.24,1.02.91,1.31,1.35,2.02l.28-.78c1.14.98,1.07,2.12,1.93,3.21l-.56.26.72.54c-.62.11-.59.95.05,1.09l-2.34-1.12c.03-.69.96.2,1.31-.42.31-.53-.46-1.55-1.07-1.44.18.45.31.41.69.63-.67.56-1-.1-1.68-.13.15.2.1.64.37.56-.61-.23-.91-.63-1.34-1.33.57.32.31-.53.63-.47-.69.32-1.28-.25-1.61-1.23.38-1.07-1.45-1.36-1.86-2.49.9.01,1.74.22,2.38.69-.05-.84-.45-.7-.5-1.54-.68-.01-1.55.21-2.35-.43l.45-.34c-.71-.6-1.42-.16-1.86-1.19-.78-1.76-1.83-3.42-2.57-4.68l.44-.35c-1.44-.03-1.86-2.02-2.9-2.63-.59-1.84-2.7-3.03-2.45-4.36-2.22-2.45-4.25-4.51-6.09-7.36l1-.03c-.84-.13.15-.6-.31-1.01-.11.94-1.18-.15-1.83-.19-.39-1.59-2.13-2.71-3.41-3.41l.41-.39c-1.65-.42-1.93-2.24-2.85-3.67.06-.3.28-.87-.08-1.22-1.28-.13-1.54-.54-2.83-1.21-.62-.76-1.46-2.11-1.84-3.09-3.34-1.97-5.23-5.28-8.37-7.56l.3-.65c-3.55-1.72-5.78-5.85-8.56-7.52l1.01-.6c-.47-.94-1.82-1.36-2.2-.6-.46-.95-2.15-1.3-1.98-2.4-.6-.84-1.26-.46-1.98-.91-1.18-1.69-1.84-2.09-3.39-3.2l.31.37c.32-.05.65-.4.35-.77-.73-.24-1.77-1.95-2.11-.47-1.05-1.9-3.99-2.58-4.87-4.6-.1.39-.53.13-.85.2-1.38-1.11-2.39-2.84-3.9-3.19-.11-.32.74-.23.19-.7-.43-.15-.3.38-.84.22-1.34-.61-2.41-1.58-3.42-2.61-1-1.03-1.96-2.09-3.1-2.73-4.2-2.06-8.12-4.85-12.01-6.97l.18-.21c-1.8.19-2.54-2.61-4.31-1.81-.19-.39-1.13-.71-.66-1.06-1.39.13-2.63-2.14-4.58-2.02.13.09.24.08.45.05-1.31-1.26-3.02-1.17-4.46-2.41.22-.04.56.02.72-.2-.44-.77-1.99.4-1.83-.95-.38-.15-.52.49-.28.55-.87-.5-1.79-.93-2.73-1.32-.95-.37-1.95-.66-2.95-.94-2-.59-4.08-.96-6.08-1.46-2.57-1.66.49-2.19-2.04-1.92-.11-.29-.28.44-.23.17-.97.1-.96-1.79-1.75-1.31.03.84-.53.32-.67.78-1.6-1.01-1.79-1.78-3.34-1.53l.21-.39c-1.92.77-3.67-.34-5.34.77-9.06-1.56-17.87-1.66-26.71-1.28-8.79-.06-17.24,1.65-26.1,2.94-2.3-.61-2.48-.58-4.59.49.05-.2.17-.28-.02-.4.12.91-1.56.52-1.54,1.41-.81.18-1.6.38-2.38.59-.77.23-1.53.51-2.29.77-1.52.54-3.05,1.08-4.66,1.65.47-.28.49-1.08-.1-.8l-.44.78-.19-.2c-.37.28-.66.87-.14.99-1.94.96-3.95,1.66-5.93,2.45-1.98.79-4.01,1.45-6.02,2.17-1.99.76-3.99,1.5-5.97,2.3-1.96.84-3.87,1.79-5.73,2.81-.49.15-1.01.36-1.54.62-.52.28-1.05.6-1.57.93-1.05.68-2.09,1.42-2.99,2.05-.78.28-1.55.55-2.32.82-.75.31-1.49.61-2.23.92-1.47.62-2.9,1.27-4.31,1.98-2.8,1.44-5.4,3.24-7.93,5.43,0,0-.63-2.41,1.38-4.42Z"/>
      <path class="cls-4" d="m235.07,176.59c-.13.05-.01-.35.01-.45.17.2.63.19.54.49-.17-.2-.33-.05-.56-.04Z"/>
      <path class="cls-4" d="m232.32,171.99c.38-.16,1.29.61,1.71,1.14l-1.71-1.14Z"/>
      <path class="cls-4" d="m230.84,166.92c.03-.55.25-.56.58-.08-.15.16-.35.06-.58.08Z"/>
      <path class="cls-4" d="m229.88,167.16c-.25-.33-.18-.64-.1-.94-.28.21.74.66.1.94Z"/>
      <path class="cls-4" d="m224.37,157.7c-.18-.19-.8-.43-.59-.9-.08.41,1.19.7.59.9Z"/>
      <path class="cls-4" d="m220.77,154.08c-.08-.14-.07-.24-.27-.32-.04-.35.39-.29.57-.11l-.3.43Z"/>
      <polygon class="cls-4" points="149.99 95.93 150.57 96 150.32 96.32 149.99 95.93"/>
      <path class="cls-4" d="m111.63,83.06c-.58.14-.31-.44-.39-.52.5.04-.27.45.39.52Z"/>
      <polygon class="cls-4" points="89.79 83.18 89.96 83.17 89.9 84 89.79 83.18"/>
    </g>
    <g>
      <path class="cls-4" d="m244.81,138.02c-1.35,1.06-3.03,1.26-4.74,1.23-1.71,0-3.45-.1-5.02.59-.37.09.06-1.04-.77-.78-1.51.77-3.49.95-5.55.8-2.06-.2-4.2-.77-6.03-1.38l.24-.29c-.7-.22-1.6.7-2.34.52,0-.2.25-.27.09-.55-.22.58-1.37.2-1.71.62-.28-.25-.22-.72-.59-1l-.47.65c-1.31,1.56-2.89-.32-4.58.35.09-.15.27-.26.15-.42-2.71.77-5.97.12-8.94.08.15-.22.33-.64.2-.93-.25.68-1.18.7-1.98.71-.23-.78-1.45.43-2.3-.13l.11-.15c-.82.64-.92-.61-1.64.2l-.32-.66c-.5.95-.87-.73-1.52-.34l-.03.21c-.58.13-.74-.43-1.26-.37l-.02-.13c-1.2.02-1.73-.68-1.88.11-.25-.72,1.17-.05.75-1.1-1.95,0-3.86-.36-5.76-.76-1.89-.45-3.74-1.07-5.59-1.6-.31-.45-.55-.63-.54-.95-.41.03-1.41-.32-1.87-.04.13.03-.1-.47-.28-.57-.56-.51-1.01.59-1.62,0,.36-.1.55-.32.55-.63-.83.4-1.62,0-2.41-.1.16-.08.36-.09.42-.34-1.04.37-1.38-.69-2.24-.53l.43-.34c-.9-.95-.68.78-1.53.1.29-.05.27-.25.38-.41-1.22.47-2.54-.45-3.54-.55.08-.04.11-.16.11-.16-1-.33-1.92-.96-3.11-1.13-.29-.37.6-.98-.47-1.29-.36.87-1.86-.45-1.73.78-.8-.54-2-1.5-2.69-1.53.54-.12.11-1.23.84-.94l-.27-.78c.25-.3.48.4.53-.12-.36-.14-1.54-.34-1.78-.64-.9.17-2.02.83-3.11.35.66-.05.22-1.06.63-1.02l-2.31.75c-.37-.16.29-.69-.33-.76-.1.23-.39.24-.64.33-.07-.17-1.56-.61-1.23-1.5.03-.4.65.16.44-.34-.63-.37-.81-.12-1.44-.49l.05-.11c-.34-.37-1.41-.41-1.23.3.27.2.18-.54.47-.05-.57.28-1.38-.04-2.01-.42.29,0,.4-.22.62-.39-1.23.11-2.23-.28-3.32-.64-.26.36.78-.44.79-.16-.83-1.29-2.93-.89-3.39-2.31.2.05-.27.57-.21.46-.53-.44-.13-.94-.63-1.01.18-.33-.52-.23-.96-.4-.35.08,0-.22.36-.02-.7-.1-3.12-1.14-3.95-2.5-.13.21-1.27.16-1.53-.07l.46-.37c-.03-.46-.93-.65-.67-1.08-1.01.11,2.58,1.23,1.47,1.06.09-.53-1.65-.11-1-.6-.56-.39-1.47-.3-1.64-1.14.09.19.93-.27.48-.59-.81-.53-.39.04-1.11-.31l-.53-.13c-.38.41-.62-.61-.74.1.2-.43-1.27-.68-.6-1.33l.58-.48c-.36-.22-1.02.15-1.48.18,0-.09.02-.27.11-.35-.78.81-.69-.73-1.63-.4-.4-.88-1.67-1.49-1.5-2.3-.72-.21-1.45-.33-1.85-1.03.18.03.36.15.56,0-.13-.57-.42-.44-.86-.6.19-.05-.25-1.14-.37-1.79-.71-.22-.97.37-1.27.59.34-1.22-1.85-.83-1.69-2.08.27.06,1.08.3.88-.29.35-1.21-1.46-.28-1.77-1.36l-.49.82c.1-.72-1.39-.68-.65-1.26-.47-.01-.58-1.05-1.16-.36-.58-1.68-3.03-2.6-2.5-4.41-.27-.07-.54-.6-.81-.21-.12.62.63.16.47.5-.16-.14-.37,0-.48.06-.19-.51-.4-.85.48-.99-.33-1.19-1.91.14-2.58-1.18.32-.19.36-.37.04-.65l-1-.19c-.49-.8.31-.94.77-1.37-.4-.3-.77-.78-1.27-.66l.23-.96c-.17.7-.55-.07-.81-.16l.26.08c.15-.24-.33-.58-.58-.75-.26.3-.02.85.1,1.17-.37-.02-.57-.37-1.03-.42.55-.3-.16-.9-.36-1.24-.18-.43-.75-.05-.82-.17.24-.2-.41-.61.16-.61.17.06-.03.47.35.49,0-.38.46-.69-.24-.93-.52-.18-.89.85-1.12-.09.26.09.48-.03.77-.02l-.25-.85-.47.32c.05-.18.13-.14.16-.23-.62.17-.91-.88-1.55-.63-.3-.3-.23-.93-.41-1.28l.08.03c-.02-.59-.57-.98-1.12-1.08l.11-.06c-.12-.24-.56-.69-1.02-.77-.05-.79,1.59-1.42.58-1.6-.42-.53-1.45-.27-1.59.17-.39-1.22-1.93-1.84-1.86-3.26-.29-.02-.34.16-.66-.07-.8-1.62-2.67-2.78-2.49-4.6.48.31.49-.27.76-.46-.65-.09.17-.71-.64-.38-.41.31-.64.4-.54.94-.8-.76-1.68-2.13-1.58-2.89-.05.38-.3.26-.55.14.73-.36.43-1.09-.13-1.46l-.46.18.23-.59c-.25-.11-1.02.32-.92-.43.15-.13.3-.25.36-.42-.67-.32-1.69-.73-1.67-1.52l.35-.83c-.21-.21-.83-.41-.76.13-.2-1.21-.52-1.87-.14-2.49-1.14-.49-2.07-1.36-2.84-2.36-.75-1.01-1.35-2.16-1.83-3.2l.36-.11c.02-.7-.72.01-.69-.49.4.02.47-.77,1.07-.53-.05-.96-1.08-.72-1.49-1.15-.47.14.48.27-.11.45-.2-.01-.21-1.26-.93-1.05.16-.33.72-.41,1.04-.44l-.56-.32c.47-.96,2.04.65,2.68-.44l-.32-.38c.48-.76,1.36.76,1.04-.45-.56-.31-1.72-.25-1.8.32-.67-.91-1.8.31-2.27-.8.24-.48.51.82.95.35.28-.77-.79-.88-.83-1.42,0,.62-.88.52-1.16.25.05-.7.8.06.49-.76-.45.05-1.08-.53-1.05.22-1.01.13-.14-.94-1.02-1.05.49-.54,1.79.15,1.7-.86-.53.41-1.3-.69-1.96.17.01-.42.46-.67.94-.59.14-.65-1.63-.68-.53-1.38l-.68.11c.13-.24.18-.53.4-.93-.18-.43-1.44-1.02-.5-1.39-.16-.1-.55-1.1-1.02-.44-.12.78.78.5.07,1.22.51-.74-.49-.84-.88-1.1l.33-.21c-.24-.15-.36-.67-.81-.64.27.08.48-.12.5-.32h-.64c-.64-.74.87-.6.35-1.37l.69.46c-.15-.1.24-.6-.1-.93-.56.06-1.28.02-1.73.04-.42-.38.47-.45-.24-.7l.86.36c.2.02.64-.75.37-1.38-.34-.33-1.32-.67-1.33.09-.14-.32-.02-.89.45-.78-.47-.65-.5.32-1.06-.18.23-.39.37-1.38.67-2.05l1.1.31-.17-.43c.89.29.4-.49,1.23-.46,0-.34-.39-.6-.68-.81-.8,1.31-1.93-.35-2.87.3-.75-1.08,2.23-1.72.13-2.34-.19.31-1.21.02-.62.66-.17-.79-1.24-.11-1.14-1.15.67.49.79-1.09,1.77-.39-.37.07-.07.62.09.73.29-.46,1.07-.34.79-1.09-.27-.42-.53-1.05-1.04-.75-.59.24.33.68-.39.61-.56-.85.3-1.34-.9-1.33.3.56-.27.93-.68,1.07l-.5-.59h.45c-.11-1.22-.84-.07-1.12-1.18l.61-.78c.77,0,.26,1.66,1.3,1.06-.21-.7-.85-.73-.8-1.48.15.11.25.3.4.41-.05-.26,1.32-1.03.12-1.7-.51-.39-.44,0-.86.14-.51-1.07-1.06-1.25-1.37-1.95.86-.13-.35-1.3.75-.79-.36.53.25,2.12,1.16,2.24.82-.74.17.92,1.22.81-.29-.89.67-1.18,1.24-1.54-.04-.26-.39-.4-.53-.52-.62.1-.5.42-1.09.64-.19-1.04-.84-1.88-1.59-2.24.18-.43.8-.52.99-.15-.57-1.12-.9-2.41-1.08-3.59-.73,1.03-.63-1.18-1.27-.43-.02.67-.54,1.41-1.08,1.21-.06-.4.42-.12.58-.34-.68-.32.6-1.02-.37-1.23.65.99,1.24-.16,2.05-.19-.67-.65.55-.13.31-.91-.66-.65-1.28-1.5-1.7-2.33.39-1.3-.79-2.77-1.09-3.75.24-.62,1.2-.51,1.2-1.1-.2-.65-.8.74-.67-.34l.2.05c-.28-.24.12-1.93-1.2-1.89l1.01.06c.04-.2-.22-.31-.36-.44.3-.09.53-.37.8-.13.49-.76-.42-1.22-.61-1.87l-.45.56c-.71-1.01-.34-1.89-.79-2.93l.55-.09-.47-.57c.57.04.77-.63.26-.87l1.71,1.36c-.21.53-.78-.35-1.25.06-.41.36-.03,1.32.53,1.36-.03-.4-.15-.38-.42-.63.73-.3.83.28,1.41.44-.08-.19.09-.53-.16-.51.46.3.61.68.79,1.32-.4-.36-.41.35-.67.24.68-.11,1.04.45,1.05,1.3-.63.77.88,1.37.92,2.34-.77-.19-1.44-.53-1.86-1.02-.18.67.19.64,0,1.32.58.15,1.4.14,1.91.81l-.48.18c.44.61,1.17.41,1.28,1.31.18,1.55.63,3.08.92,4.22l-.47.19c1.24.31,1.03,1.97,1.77,2.66-.02,1.59,1.49,2.94.89,3.95,1.24,2.38,2.37,4.43,3.17,7.05l-.86-.17c.69.27-.29.45-.01.87.36-.73.96.35,1.5.5-.09,1.34,1.06,2.58,1.96,3.38l-.46.23c1.31.65,1.01,2.17,1.4,3.48-.13.23-.48.64-.27.99,1.05.35,1.14.73,2.06,1.51.32.72.65,1.97.69,2.84,2.3,2.21,2.91,5.26,4.95,7.69l-.44.47c2.48,2.07,3.2,5.83,5.03,7.73l-1.02.29c.12.85,1.14,1.45,1.67.9.13.85,1.42,1.47.95,2.34.26.8.92.61,1.39,1.12.51,1.6.9,2.07,1.89,3.26l-.15-.36c-.28-.02-.66.2-.51.56.55.33.9,1.94,1.63.79.28,1.77,2.57,2.87,2.67,4.73.2-.3.48,0,.76,0,.84,1.16,1.12,2.82,2.27,3.4,0,.28-.68.04-.36.53.31.2.36-.25.76-.02,1.85,1.51,2.3,4.15,3.72,5.73,2.86,2.52,5.09,5.74,7.61,8.3l-.21.14c1.48.26,1.21,2.73,2.91,2.45.03.37.67.86.18,1.04,1.12.24,1.44,2.35,3.02,2.73-.07-.11-.16-.12-.34-.15.6,1.39,2.02,1.69,2.76,3.05-.18-.02-.43-.15-.63,0,.1.74,1.7.16,1.12,1.25.25.22.57-.28.4-.39,1.02,1.28,2.36,2.3,3.73,3.29,1.4.96,2.88,1.83,4.26,2.78,1.47,2.02-1.12,1.67.94,2.12-.02.28.37-.29.24-.08.78.18.11,1.76.89,1.57.27-.71.52-.12.79-.47.91,1.24.78,1.95,2.05,2.18l-.29.26c1.73-.07,2.71,1.29,4.37.87,6.36,3.94,12.94,6.8,19.59,9.57,6.45,3.1,13.23,4.86,20.09,7.31,1.41,1.38,1.54,1.43,3.47,1.44-.11.14-.24.16-.15.33.27-.79,1.32.2,1.66-.53,2.6.75,5.09.94,7.82,1.4-.45.01-.77.64-.25.68l.62-.43.05.24c.37-.07.82-.42.49-.73,6.93.34,13.63,2.5,20.55,2.4,1.63.41,3.96.05,5.73-.15,5.27,1.04,10.15,1.56,15.45.31,0,0-.48,2.19-2.69,2.87Z"/>
      <path class="cls-4" d="m77.88.5c-.37.27-.45.93-1.1.56.37-.14.72-.55,1.1-.56Z"/>
      <path class="cls-4" d="m78.09,17.84c.12-.02-.09.28-.14.35-.09-.19-.48-.28-.33-.5.09.2.27.11.46.15Z"/>
      <path class="cls-4" d="m79.18,22.05c-.37.05-.94-.74-1.15-1.25l1.15,1.25Z"/>
      <path class="cls-4" d="m79.06,26.38c-.18.43-.37.4-.52-.05.17-.1.32.02.52.05Z"/>
      <path class="cls-4" d="m79.95,26.38c.12.31-.03.55-.17.77.3-.12-.44-.67.17-.77Z"/>
      <path class="cls-4" d="m82.03,35.03c.11.19.56.5.25.84.18-.31-.81-.79-.25-.84Z"/>
      <path class="cls-4" d="m84.09,38.63c.03.13-.01.21.14.31-.06.29-.41.16-.52-.02l.38-.29Z"/>
      <polygon class="cls-4" points="125.58 100.24 125.13 100.05 125.44 99.84 125.58 100.24"/>
      <path class="cls-4" d="m151.01,120.81c.5.04.08.45.11.54-.36-.18.37-.31-.11-.54Z"/>
      <polygon class="cls-4" points="167.31 127.61 167.19 127.56 167.55 126.9 167.31 127.61"/>
    </g>
    <g>
      <path class="cls-4" d="m156.78,122.14c-3.43,1.21-7.01-1.58-10.62-1.13-.41-.02.35-.98-.58-.96-3.54.53-8.36-1.79-11.84-4l.32-.22c-.33-.21-.8-.14-1.27-.07-.47.05-.94.1-1.3-.1.06-.19.33-.18.24-.5-.38.5-1.46-.23-1.93.07-.23-.33-.04-.76-.34-1.15l-.66.48c-1.75,1.08-2.9-1.17-4.85-.98.14-.12.34-.17.27-.37-1.49-.04-3.09-.34-4.64-.85-1.55-.54-3.1-1.17-4.63-1.64.21-.17.49-.52.43-.85-.43.59-1.4.37-2.23.15-.05-.82-1.61.03-2.36-.74l.15-.11c-1,.4-.82-.84-1.76-.25l-.18-.71c-.75.82-.74-.93-1.5-.74l-.07.2c-.62-.04-.66-.64-1.21-.73v-.13c-1.22-.33-1.61-1.18-1.95-.45-.1-.78,1.21.29,1.02-.86-4-1.17-7.77-3.14-11.25-5.38-.24-.52-.44-.76-.37-1.08-.44-.07-1.4-.68-1.94-.52.13.06-.01-.49-.18-.64-.48-.65-1.17.33-1.68-.41.4-.01.63-.17.7-.49-.94.17-1.69-.4-2.51-.66.18-.05.4-.01.51-.24-1.18.15-1.29-1.05-2.2-1.11l.5-.22c-.73-1.2-.85.59-1.57-.32.3.03.33-.17.47-.3-1.32.11-2.54-1.09-3.55-1.44.09-.02.15-.13.15-.13-.99-.56-1.8-1.45-3.03-1.86-.25-.43.8-.83-.28-1.37-.55.81-1.82-.94-1.91.35-.71-.76-1.75-2.05-2.48-2.22.58,0,.32-1.21,1.03-.74l-.14-.85c.31-.24.43.51.57,0-.35-.23-1.54-.71-1.74-1.06-.97-.04-2.21.34-3.28-.37.7.09.4-1.01.82-.87l-2.54.26c-.36-.24.4-.61-.22-.83-.14.21-.44.15-.71.17-.05-.19-1.47-1.02-.99-1.84.1-.4.64.32.51-.24-.58-.52-.82-.31-1.41-.82l.07-.1c-.29-.45-1.39-.74-1.32.02.25.27.27-.5.49.06-.63.15-1.41-.36-2-.88.3.07.44-.13.7-.25-1.27-.18-2.26-.77-3.35-1.35-.32.3.88-.28.85,0-.72-1.43-2.86-1.56-3.12-3.1.2.09-.36.52-.29.42-.47-.56,0-.99-.5-1.16.23-.3-.5-.34-.93-.62-.37,0,.04-.22.37.06-.7-.27-3.03-1.84-3.73-3.35-.15.18-1.36-.07-1.56-.38l.52-.28c.04-.48-.83-.89-.51-1.27-.51-.06.09.41.68.83.59.43,1.22.76.65.58.15-.5-1.65-.47-.93-.83-.49-.54-1.44-.64-1.49-1.53.06.22.99-.08.57-.5-.75-.71-.4-.04-1.09-.55l-.52-.24c-.45.34-.55-.75-.77-.05.27-.4-1.21-.96-.43-1.48l.65-.37c-.33-.3-1.07-.05-1.55-.11.01-.09.05-.27.15-.33-.91.67-.63-.87-1.65-.72-.34-.94-1.48-1.89-1.21-2.67-.71-.36-1.43-.64-1.74-1.44.18.07.35.22.57.11-.06-.61-.37-.53-.8-.8.2-.02-.11-1.22-.14-1.92-.7-.36-1.04.2-1.38.36.49-1.19-1.82-1.19-1.51-2.44.28.11,1.08.51.94-.13.48-1.16-1.45-.58-1.62-1.76l-.6.75c.2-.72-1.32-.98-.5-1.43-.47-.1-.46-1.21-1.13-.59-.36-1.86-2.79-3.25-2.05-5.01-.27-.12-.49-.72-.8-.36-.19.62.63.28.43.6-.15-.17-.38-.07-.5-.03-.14-.55-.29-.96.6-.93-.16-1.32-1.93-.23-2.44-1.73.35-.14.41-.31.12-.66l-.99-.39c-.4-.92.42-.92.95-1.28-.37-.39-.68-.96-1.21-.92l.34-.95c-.24.69-.55-.17-.81-.31l.26.13c.18-.22-.28-.65-.51-.88-.3.26-.1.87-.02,1.22-.38-.09-.54-.48-1.01-.62.59-.21-.08-.96-.24-1.35-.12-.49-.74-.2-.79-.33.27-.17-.33-.72.24-.61.17.09-.09.48.29.58.05-.4.55-.64-.12-1.02-.5-.28-.99.72-1.11-.3.25.14.49.06.77.12l-.15-.93-.51.24c.07-.17.15-.13.19-.21-.64.06-.81-1.09-1.49-.94-.27-.36-.11-1.01-.26-1.42l.08.05c.04-.61-.49-1.11-1.03-1.32l.12-.04c-.1-.27-.5-.82-.97-.98.03-.83,1.75-1.19.76-1.57-.34-.64-1.42-.55-1.61-.12-.24-1.35-1.72-2.27-1.48-3.75-.29-.07-.36.1-.65-.19-.66-1.82-2.42-3.36-2.01-5.24.44.41.53-.2.81-.34-.64-.21.25-.72-.6-.51-.44.25-.69.31-.65.89-.72-.94-1.43-2.54-1.25-3.31-.09.38-.33.22-.57.05.78-.25.54-1.07.02-1.54l-.49.11.3-.58c-.24-.16-1.06.16-.89-.61.16-.11.33-.21.41-.38-.62-.46-1.6-1.07-1.48-1.9l.45-.82c-.19-.26-.78-.58-.77,0-.05-1.3-.29-2.06.14-2.65-1.08-.71-1.97-1.76-2.59-2.96-.63-1.2-1.08-2.51-1.44-3.69l.37-.05c.1-.74-.72-.11-.64-.63.4.08.56-.73,1.14-.38.05-1.02-1.01-.94-1.38-1.46-.49.07.46.37-.16.45-.2-.05-.08-1.35-.82-1.26.2-.32.77-.31,1.09-.29l-.51-.44c.59-.94,1.95,1.04,2.72,0-.1-.15-.19-.31-.28-.46.57-.72,1.26,1.04,1.09-.29-.52-.43-1.67-.56-1.83.03-.55-1.08-1.83.02-2.16-1.24.3-.47.41.96.91.53.38-.76-.68-1.06-.65-1.64-.08.66-.94.4-1.19.07.13-.73.79.2.58-.71-.45-.02-1.01-.75-1.07.05-1.02-.04-.04-1.01-.91-1.28.55-.49,1.78.46,1.8-.62-.57.35-1.23-.95-1.99-.15.06-.44.54-.63,1.01-.46.2-.66-1.54-1-.35-1.55h-.69c.16-.24.25-.53.51-.92-.12-.49-1.31-1.32-.33-1.55-.14-.13-.41-1.25-.96-.64-.21.81.71.66-.08,1.3.6-.7-.38-.97-.74-1.31l.36-.17c-.21-.2-.29-.77-.73-.81.27.13.5-.04.53-.25l-.64-.1c-.56-.9.94-.5.51-1.4l.64.6c-.14-.13.31-.6,0-1-.57-.04-1.28-.2-1.72-.25-.36-.48.53-.39-.14-.78l.8.53c.2.06.75-.69.56-1.4-.29-.41-1.23-.93-1.33-.13-.1-.36.1-.94.55-.75-.38-.77-.54.25-1.04-.37.28-.38.55-1.4.93-2.06l1.06.52-.11-.49c.86.45.46-.45,1.29-.27.03-.36-.32-.7-.59-.97-.95,1.25-1.89-.7-2.91-.16-.6-1.28,2.46-1.44.45-2.45-.23.29-1.21-.18-.7.59-.06-.86-1.22-.33-.98-1.41.61.63.93-1.02,1.81-.11-.38,0-.15.65,0,.79.34-.44,1.11-.17.93-1.02-.22-.49-.39-1.2-.94-.97-.62.15.24.78-.46.58-.44-.99.47-1.36-.73-1.56.23.64-.38.94-.81,1.02l-.43-.71.45.06c.03-1.29-.84-.21-.98-1.42l.71-.73c.75.14.04,1.8,1.15,1.35-.13-.78-.76-.92-.6-1.71.13.14.2.36.33.5-.01-.29,1.46-.87.36-1.79-.46-.5-.44-.07-.87,0-.37-1.22-.88-1.51-1.1-2.3.87.01-.19-1.43.84-.7-.42.5-.02,2.29.86,2.57.91-.64.05,1,1.11,1.07-.17-1,.83-1.14,1.44-1.42,0-.28-.33-.49-.46-.64-.63,0-.55.36-1.17.5-.05-1.14-.59-2.14-1.3-2.64.23-.42.86-.41,1,.01-.42-1.28-.56-2.71-.58-4-.86.97-.46-1.36-1.2-.68-.11.71-.72,1.41-1.23,1.1,0-.43.44-.06.62-.27-.63-.45.73-.97-.21-1.37.52,1.16,1.25.04,2.07.15-.58-.8.56-.05.42-.91-.56-.8-1.05-1.82-1.36-2.76.56-1.31-.41-3.08-.56-4.17.33-.62,1.26-.34,1.34-.97-.1-.72-.89.65-.61-.47l.19.08c-.25-.3.38-2.02-.92-2.21l.99.23c.07-.21-.17-.37-.29-.53.31-.04.57-.3.81,0,.6-.72-.24-1.37-.34-2.09l-.52.51c-.57-1.19-.05-2.07-.35-3.24h.56s-.38-.69-.38-.69c.55.14.86-.53.39-.88.5.59.98,1.17,1.49,1.74-.29.53-.72-.51-1.24-.15-.46.31-.22,1.4.33,1.53.03-.43-.1-.43-.32-.75.77-.2.79.44,1.33.71-.05-.22.16-.55-.09-.57.41.4.5.83.58,1.54-.35-.46-.46.31-.69.14.69,0,.97.66.86,1.56-.72.71.66,1.6.57,2.64-.74-.34-1.36-.81-1.7-1.4-.28.68.09.72-.18,1.4.55.26,1.37.39,1.78,1.19l-.5.11c.35.73,1.1.63,1.08,1.61-.04,1.68.22,3.37.33,4.64l-.5.12c1.17.54.78,2.26,1.4,3.12-.23,1.68,1.06,3.37.36,4.34.46,1.37.9,2.64,1.28,3.94.39,1.3.74,2.61.96,4.07l-.83-.33c.65.4-.34.43-.13.91.45-.71.91.54,1.43.79-.3,1.42.76,2.91,1.53,3.91l-.49.17c1.22.91.73,2.47.95,3.93-.16.22-.55.6-.38,1,1.01.55,1.07.97,1.88,1.95.23.82.41,2.2.33,3.12,1,1.37,1.61,2.87,2.14,4.41.55,1.53.99,3.12,1.9,4.56l-.49.42c1.15,1.31,1.77,2.98,2.3,4.62.51,1.65,1.07,3.23,1.86,4.39l-1.05.13c.02.92.97,1.73,1.57,1.25.03.92,1.25,1.8.67,2.64.15.89.86.8,1.28,1.42.35,1.76.7,2.32,1.55,3.76l-.11-.4c-.28-.07-.69.09-.58.49.51.45.67,2.2,1.54,1.12.04,1.94,2.29,3.46,2.18,5.43.24-.28.49.08.77.14.7,1.37.8,3.16,1.88,3.99-.03.29-.7-.08-.42.49.29.27.39-.2.78.12,1.76,1.89,1.89,4.75,3.13,6.67,1.28,1.6,2.48,3.29,3.55,5.03,1.09,1.73,2.07,3.51,3.25,5.05l-.23.1c1.51.54.94,3.06,2.69,3.1-.02.39.57,1.03.06,1.12.56.23.85.92,1.18,1.64.34.72.78,1.44,1.57,1.78-.07-.12-.15-.15-.34-.22.49,1.52,1.89,2.13,2.48,3.69-.18-.06-.42-.25-.65-.14,0,.78,1.71.52.98,1.52.22.28.62-.17.46-.32.45.76.94,1.51,1.53,2.19.6.67,1.24,1.32,1.9,1.96,1.32,1.27,2.71,2.49,4,3.77,1.19,2.43-1.41,1.5.66,2.39-.05.28.42-.22.26-.03.8.34-.1,1.8.74,1.77.37-.66.55-.02.89-.31.77,1.47.52,2.16,1.8,2.68l-.34.2c1.81.29,2.57,1.96,4.34,1.91,1.54,1.32,3.08,2.6,4.61,3.87,1.55,1.25,3.03,2.55,4.67,3.65,1.59,1.15,3.18,2.29,4.77,3.43l2.36,1.74,2.45,1.62c3.13,2.28,6.22,4.57,9.6,6.44,3.33,1.95,6.54,4.1,9.95,6.11,1.17,1.74,1.32,1.79,3.31,2.36-.15.11-.28.08-.23.28.46-.69,1.31.59,1.83-.03.63.37,1.26.71,1.89,1.04.64.3,1.3.56,1.96.83,1.31.53,2.64,1.05,4.02,1.65-.47-.11-.96.41-.42.59l.75-.25v.25c.4.04.95-.16.69-.57,1.81.57,3.51,1.36,5.24,2.07,1.74.68,3.45,1.44,5.15,2.22,1.7.77,3.4,1.56,5.11,2.31,1.71.74,3.51,1.24,5.31,1.73,1.6.82,4.11,1.22,5.99,1.59,2.56,1.4,5.14,2.35,7.74,3.23,2.61.85,5.29,1.48,8.2,1.73,0,0-1.14,1.94-3.61,1.89Z"/>
      <polygon class="cls-4" points="39.67 53.33 39.25 53.04 39.58 52.89 39.67 53.33"/>
      <path class="cls-4" d="m62.95,79.58c.51.15,0,.48.03.57-.35-.26.43-.23-.03-.57Z"/>
      <polygon class="cls-4" points="78.58 90.27 78.45 90.2 78.94 89.62 78.58 90.27"/>
    </g>
    <g>
      <path class="cls-4" d="m193.5,89.69c-1.68-.23-3.1-1.22-4.51-2.29-.71-.53-1.41-1.1-2.15-1.57-.75-.45-1.53-.84-2.36-1.07-.36-.15.54-.66-.31-.95-1.67-.34-3.46-1.33-5.2-2.58-1.73-1.26-3.5-2.64-4.96-4.01l.32-.09c-.56-.51-1.74-.27-2.36-.75.07-.14.33-.07.27-.35-.4.32-1.34-.5-1.8-.35-.18-.32.02-.63-.23-1.02l-.65.27c-1.71.58-2.67-1.44-4.49-1.61.13-.08.33-.09.26-.26-1.4-.26-2.84-.8-4.28-1.42-1.46-.59-2.96-1.18-4.41-1.67.19-.13.43-.4.36-.67-.37.46-1.29.21-2.08-.01-.1-.69-1.49-.07-2.23-.75l.13-.09c-.88.29-.82-.77-1.63-.28l-.24-.59c-.6.66-.79-.76-1.5-.58l-.04.16c-.59,0-.7-.5-1.23-.55v-.11c-1.2-.23-1.69-.91-1.89-.29-.21-.64,1.16.19.82-.75-3.88-.87-7.71-2.16-11.47-3.41-.35-.39-.6-.55-.62-.82-.41-.02-1.47-.29-1.91-.08.13.02-.15-.39-.35-.47-.63-.43-.96.47-1.64-.01.35-.08.51-.25.47-.51-.79.31-1.64,0-2.45-.06.15-.07.35-.08.37-.29-.99.32-1.51-.54-2.34-.39l.37-.29c-1.08-.77-.54.66-1.5.12.28-.05.22-.21.3-.35-1.13.41-2.64-.13-3.66-.13.07-.04.08-.14.08-.14-1.07-.15-2.13-.6-3.35-.57-.39-.26.32-.86-.82-.97-.11.73-1.96-.1-1.46.86-.93-.28-2.4-.82-3.09-.68.48-.21-.31-.98.5-.91l-.53-.55c.14-.29.61.21.48-.2-.41-.04-1.63.05-1.97-.13-.82.33-1.64,1.06-2.85.95.61-.19-.2-.87.2-.93-.63.37-1.26.76-1.89,1.17-.4-.01,0-.6-.61-.47,0,.2-.27.29-.46.43-.14-.1-1.69-.01-1.77-.77-.14-.31.67-.07.26-.39-.74-.08-.81.17-1.55.09v-.1c-.48-.17-1.48.14-.99.61.34.06-.08-.46.4-.18-.39.38-1.26.4-2,.32.26-.09.25-.29.37-.48-1.05.44-2.12.56-3.25.72-.05.35.47-.61.62-.41-1.39-.59-2.99.48-4.13-.31.2-.05.07.51.07.41-.68-.09-.62-.6-1.08-.44-.03-.3-.57.06-1.03.12-.25.2-.11-.15.29-.16-.66.16-3.24.61-4.71.13.02.2-.92.7-1.26.68l.14-.46c-.31-.28-1.14.02-1.2-.38-.74.54,2.82-.42,1.82,0-.25-.39-1.38.71-1.16.08-.69,0-1.35.51-2,.06.19.08.56-.63,0-.61-.98.07-.28.2-1.07.37l-.49.2c-.03.45-.87-.04-.5.46-.13-.37-1.41.27-1.32-.48l.12-.59c-.42.06-.68.64-1,.91-.06-.05-.17-.17-.15-.26-.04.9-1.01-.05-1.48.66-.89-.29-2.24.04-2.68-.51-.66.32-1.26.69-2.04.56.15-.1.36-.14.39-.33-.5-.23-.61.02-1.04.2.09-.14-1.01-.45-1.57-.72-.65.32-.38.78-.42,1.08-.69-.84-1.84.72-2.69-.03.22-.14.94-.51.36-.69-.71-.85-1.18.76-2.21.47l.32.7c-.49-.4-1.4.61-1.38-.15-.3.3-1.19-.1-.99.6-1.69-.38-3.88.82-5.05-.25-.21.16-.81.14-.63.48.45.33.49-.38.68-.13-.2.06-.22.26-.22.36-.52-.07-.93-.06-.55-.73-1.19-.24-.95,1.41-2.41,1.38.01-.3-.12-.4-.52-.28l-.69.64c-.93.04-.65-.57-.76-1.06-.47.17-1.08.25-1.23.66-.24-.17-.48-.34-.72-.5.52.35-.34.39-.54.56l.2-.17c-.13-.19-.67.07-.94.19.13.29.73.28,1.06.3-.2.27-.6.31-.87.64,0-.51-.86-.17-1.26-.13-.46,0-.4.54-.53.56-.07-.25-.73.12-.46-.31.13-.11.4.17.6-.11-.33-.12-.4-.56-.93-.11-.4.34.33.92-.6.81.2-.17.19-.37.33-.58l-.87-.07.07.45c-.14-.09-.07-.14-.13-.19-.13.51-1.2.42-1.26.98-.4.13-.93-.1-1.33-.04l.06-.06c-.54-.13-1.12.21-1.43.62v-.1c-.27.04-.86.27-1.11.62-.74-.15-.67-1.58-1.24-.83-.66.2-.81,1.08-.46,1.28-1.27.03-2.39,1.1-3.67.81-.11.23.03.3-.29.52-1.76.39-3.42,1.68-5.07,1.29.43-.34-.12-.43-.21-.67-.27.52-.63-.21-.54.49.18.37.2.57.73.54-.93.59-2.44,1.17-3.13,1.03.34.07.17.27,0,.46-.16-.63-.93-.44-1.41-.01l.07.4-.51-.24c-.17.2.07.86-.62.72-.09-.13-.18-.26-.32-.33-.46.51-1.05,1.36-1.78,1.33l-.73-.31c-.24.17-.54.69-.02.64-1.18.14-1.87.4-2.41.09-.65.97-1.64,1.68-2.68,2.39-1.05.69-2.19,1.25-3.23,1.72l-.07-.29c-.67.03-.05.6-.53.61.05-.34-.7-.34-.42-.86-.93.12-.78.96-1.23,1.33.1.38.3-.42.43.06-.03.15-1.21.31-1.05.89-.3-.1-.36-.56-.37-.83l-.33.51c-.9-.28.73-1.81-.27-2.22l-.39.33c-.71-.31.83-1.26-.37-.83-.34.52-.34,1.5.21,1.49-.91.7.22,1.48-.86,2.03-.46-.14.8-.54.37-.85-.73-.13-.87.79-1.39.89.6-.08.48.67.22.94-.67.06.07-.68-.72-.31.04.36-.52.97.2.84.11.82-.89.26-1,1-.52-.33.15-1.51-.83-1.28.39.36-.64,1.23.19,1.62-.39.07-.64-.26-.57-.68-.62,0-.6,1.5-1.29.71l.12.55c-.23-.06-.5-.04-.89-.14-.4.24-.9,1.41-1.29.71-.08.15-1.01.69-.36.94.75-.07.43-.75,1.15-.31-.73-.27-.77.58-.98.95l-.22-.23c-.13.22-.61.45-.55.8.05-.24-.14-.37-.34-.34l.06.53c-.62.73-.64-.57-1.3.07l.36-.7c-.08.15-.58-.04-.85.33.1.45.14,1.06.21,1.42-.31.45-.46-.27-.62.38l.24-.8c0-.17-.77-.33-1.32.07-.27.37-.46,1.27.23,1.07-.27.2-.82.26-.78-.15-.55.57.35.32-.04.92-.39-.08-1.33.08-2,.04l.15-.99-.39.26c.15-.81-.51-.18-.59-.87-.33.1-.51.51-.66.83,1.32.21-.02,1.71.73,2.26-.85.97-1.95-1.23-2.14.69.31.05.24.97.71.27-.68.41.13,1.03-.83,1.31.31-.71-1.15-.25-.69-1.28.13.27.58-.17.65-.33-.47-.07-.5-.75-1.15-.25-.34.37-.87.81-.5,1.11.34.38.56-.51.64.09-.66.74-1.29.24-1.03,1.2.43-.45.9-.13,1.11.15l-.43.61-.11-.35c-1.03.56.14.7-.76,1.35l-.83-.17c-.17-.62,1.39-.87.64-1.46-.57.45-.45.97-1.12,1.24.06-.16.2-.32.27-.48-.22.15-1.22-.63-1.54.61-.22.57.11.35.33.62-.81.85-.84,1.34-1.36,1.87-.35-.61-1.04.83-.89-.24.56.05,1.81-1.09,1.69-1.85-.86-.33.77-.52.42-1.31-.73.61-1.22-.03-1.68-.32-.23.15-.27.48-.34.65.24.44.5.21.85.58-.88.6-1.48,1.46-1.58,2.21-.42.06-.67-.37-.4-.7-.8.98-1.81,1.87-2.78,2.59,1.12.04-.82,1.06.03,1.17.59-.31,1.38-.28,1.38.22-.32.24-.24-.26-.48-.27-.05.66-1.06.05-.93.88.63-.97-.54-.85-.83-1.44-.35.83-.29-.34-.89.23-.36.81-.82,1.78-1.35,2.54-1.22.44-1.99,2.14-2.67,2.91-.59.2-.89-.54-1.36-.17-.43.54.91.11.01.68l-.05-.17c-.07.34-1.56,1.14-.96,2.03l-.4-.73c-.18.1-.15.35-.19.53-.2-.15-.52-.12-.45-.47-.82.16-.78,1.09-1.2,1.63l.64-.06c-.48,1.11-1.27,1.5-1.81,2.51l-.34-.29-.18.71c-.25-.39-.85-.05-.76.46l.15-2.09c.5-.24.12.76.65.77.46.02.98-.91.74-1.31-.28.3-.21.37-.26.73-.58-.27-.2-.75-.35-1.25-.11.19-.43.32-.3.48.01-.52.2-.91.64-1.46-.11.52.47.04.49.29-.4-.38-.1-1.01.57-1.58.88-.08.72-1.52,1.5-2.19.16.68.18,1.36-.03,1.98.61-.31.43-.55,1.04-.85-.12-.5-.47-1.08-.14-1.88l.34.23c.34-.69-.11-1.09.62-1.72,1.26-1.07,2.39-2.3,3.27-3.18l.32.25c-.14-1.1,1.42-1.83,1.81-2.76,1.42-.81,2.19-2.71,3.31-2.7,1.92-2.04,3.51-3.98,5.93-5.6v.77c.12-.66.46.06.81-.32-.75-.01.17-.92.24-1.43,1.3-.43,2.29-1.86,3.01-2.84l.28.31c.5-1.29,2.03-1.54,3.29-2.26.23.05.66.21.99-.07.27-1.01.66-1.16,1.4-2.13.71-.45,1.96-1.04,2.82-1.27.55-.61,1.14-1.17,1.79-1.64.66-.46,1.34-.88,2.04-1.29,1.4-.81,2.81-1.64,4.14-2.64l.44.32c1.19-1.17,2.78-1.99,4.34-2.72,1.55-.77,3.15-1.26,4.28-2.08l.09.86c.88-.11,1.69-.98,1.27-1.43.89-.1,1.81-1.25,2.57-.81.87-.17.86-.74,1.5-1.1,1.76-.34,2.33-.64,3.83-1.37l-.4.1c-.11.23,0,.57.4.47.49-.45,2.2-.58,1.3-1.29,1.86-.01,3.78-1.73,5.65-1.54-.22-.21.18-.39.3-.62,1.48-.51,3.22-.36,4.28-1.15.27.06-.26.55.36.4.33-.2-.09-.34.32-.61,1.15-.57,2.41-.81,3.66-.94,1.26-.1,2.49-.15,3.59-.47,1.92-.7,3.94-1.24,5.97-1.57,2.03-.35,4.03-.69,5.95-1.02v.2c1.18-.91,3.12.38,4.01-.87.33.15,1.18-.06,1,.35.48-.33,1.22-.3,2.01-.29.79.01,1.64.06,2.35-.34-.14,0-.21.04-.37.14,1.55.32,2.83-.38,4.45-.11-.16.1-.45.18-.48.38.64.33,1.41-.94,1.8-.02.35-.03.23-.5.01-.45,1.75.08,3.55,0,5.38-.19,1.82-.18,3.66-.47,5.49-.5,2.6.62.14,1.6,2.2.94.16.19.13-.36.15-.16.8-.25,1.21,1.09,1.77.6-.21-.59.38-.32.41-.67,1.58.4,1.87.94,3.14.6l-.11.3c1.51-.76,3.18-.18,4.5-1.09,1.02.06,2.03.07,3.04.15,1.01.08,2.01.17,3.01.25,2,.17,4,.27,5.97.49,3.94.52,7.89.9,11.78,1.79,7.68,1.76,15.19,3.66,22.6,6.7,1.47,1.43,1.6,1.46,3.63,1.88-.12.09-.25.08-.17.24.33-.58,1.37.46,1.78-.06,1.35.6,2.69,1.06,4.02,1.59,1.32.55,2.65,1.09,4.04,1.7-.47-.13-.9.27-.37.46l.71-.15v.21c.41.07.93-.06.65-.42,7.26,2.56,13.29,7.29,19.8,10.84,1.43,1.06,3.64,2.25,5.35,3.14,4.42,3.69,8.11,7.27,13.21,10.04,0,0-1.63.95-3.79-.07Z"/>
      <polygon class="cls-4" points="67.97 56.84 67.55 57.04 67.58 56.74 67.97 56.84"/>
      <path class="cls-4" d="m100.8,56.73c.46-.13.28.31.35.36-.4-.02.18-.34-.35-.36Z"/>
      <polygon class="cls-4" points="118.62 57.94 118.49 57.92 118.65 57.34 118.62 57.94"/>
    </g>
  </g>
</svg>