<?xml version="1.0" encoding="utf-8"?>
<!-- Generator: Adobe Illustrator 15.0.2, SVG Export Plug-In . SVG Version: 6.00 Build 0)  -->
<!DOCTYPE svg PUBLIC "-//W3C//DTD SVG 1.1//EN" "http://www.w3.org/Graphics/SVG/1.1/DTD/svg11.dtd">
<svg version="1.1" id="Layer_1" xmlns="http://www.w3.org/2000/svg" xmlns:xlink="http://www.w3.org/1999/xlink" x="0px" y="0px"
	 width="25.002px" height="25.002px" viewBox="0 0 25.002 25.002" enable-background="new 0 0 25.002 25.002" xml:space="preserve">
<path fill-rule="evenodd" clip-rule="evenodd" d="M11.08,19c-4.36,0-7.91-3.55-7.91-7.92c0-4.36,3.55-7.91,7.91-7.91
	c4.37,0,7.92,3.55,7.92,7.91C19,15.45,15.45,19,11.08,19z M24.77,21.41l-4.36-4.36c1.1-1.72,1.75-3.77,1.75-5.97
	C22.16,4.96,17.2,0,11.08,0S0,4.96,0,11.08s4.96,11.08,11.08,11.08c2.2,0,4.25-0.65,5.97-1.75l4.36,4.36c0.31,0.31,0.81,0.31,1.12,0
	l2.24-2.24C25.08,22.22,25.08,21.72,24.77,21.41z"/>
</svg>
