<svg version="1.1" id="Layer_1" xmlns="http://www.w3.org/2000/svg" xmlns:xlink="http://www.w3.org/1999/xlink" x="0px" y="0px" viewBox="0 0 100.25 100.25" style="enable-background:new 0 0 100.25 100.25;" xml:space="preserve" width="26px" height="26px">
<path fill="#ffffff" d="M83.061,27.94l-11-11c-0.281-0.281-0.663-0.439-1.061-0.439H18c-0.828,0-1.5,0.671-1.5,1.5v64c0,0.829,0.672,1.5,1.5,1.5h64
	c0.828,0,1.5-0.671,1.5-1.5v-53C83.5,28.602,83.342,28.221,83.061,27.94z M34.5,19.5h31v21h-31V19.5z M71.5,80.5h-43v-26h43V80.5z
	 M80.5,80.5h-6V53c0-0.829-0.672-1.5-1.5-1.5H27c-0.828,0-1.5,0.671-1.5,1.5v27.5h-6v-61h12V42c0,0.829,0.672,1.5,1.5,1.5h34
	c0.828,0,1.5-0.671,1.5-1.5V19.5h1.879L80.5,29.621V80.5z"/>
</svg>
