<?xml version="1.0" encoding="utf-8"?>
<!-- Generator: Adobe Illustrator 16.0.0, SVG Export Plug-In . SVG Version: 6.00 Build 0)  -->
<!DOCTYPE svg PUBLIC "-//W3C//DTD SVG 1.1//EN" "http://www.w3.org/Graphics/SVG/1.1/DTD/svg11.dtd">
<svg version="1.1" id="Layer_1" xmlns="http://www.w3.org/2000/svg" xmlns:xlink="http://www.w3.org/1999/xlink" x="0px" y="0px"
	 width="512px" height="512px" viewBox="0 0 512 512" enable-background="new 0 0 512 512" xml:space="preserve">
<g>
	<path fill="#bebebe" d="M256,473.5c-58.096,0-112.715-22.624-153.796-63.704C61.124,368.716,38.5,314.097,38.5,256
		c0-58.096,22.624-112.715,63.704-153.796C143.285,61.124,197.904,38.5,256,38.5c58.097,0,112.716,22.624,153.796,63.704
		c41.08,41.081,63.704,95.7,63.704,153.796c0,58.097-22.624,112.716-63.704,153.796S314.097,473.5,256,473.5z M256,73.5
		C155.369,73.5,73.5,155.369,73.5,256S155.369,438.5,256,438.5S438.5,356.631,438.5,256S356.631,73.5,256,73.5z"/>
</g>
<g>
	<path fill="#bebebe" d="M247.725,105.946c5.5-0.74,11.1-0.67,16.6-0.031c0.051,15.271,0.021,30.531,0,45.801c-5.569-0.28-11.14-0.311-16.699,0.15
		C247.875,136.556,247.645,121.245,247.725,105.946z"/>
	<path fill="#bebebe" d="M188.215,120.776c4.99-2.15,9.979-4.301,15.08-6.191c6.06,14.111,11.899,28.33,17.67,42.561
		c-5.34,1.551-10.23,4.241-15.44,6.11C199.935,149.026,193.635,135.075,188.215,120.776z"/>
	<path fill="#bebebe" d="M291.114,157.075c5.761-14.18,11.601-28.34,17.641-42.41c5.13,1.771,10.12,3.94,15.1,6.091
		c-5.439,14.29-11.71,28.26-17.34,42.48C301.324,161.326,296.375,158.806,291.114,157.075z"/>
	<path fill="#bebebe" d="M139.175,158.095c2.83-4.559,7.439-8.37,11.6-11.93c10.54,11.091,21.87,21.43,32.21,32.67
		c-4.31,3.42-7.89,7.59-11.79,11.441C160.625,179.447,149.795,168.867,139.175,158.095z"/>
	<path fill="#bebebe" d="M361.234,146.446c4.34,2.899,8.72,7.26,11.64,11.6c-10.63,10.809-21.42,21.459-32.109,32.199
		c-3.73-4.08-7.72-7.9-11.71-11.719C339.774,167.826,350.435,157.065,361.234,146.446z"/>
	<path fill="#bebebe" d="M113.534,195.476c14.311,5.311,28.2,11.709,42.41,17.301c-1.72,5.26-4.569,10.1-6.08,15.449
		c-14.189-5.871-28.409-11.699-42.569-17.641C109.215,205.486,111.345,200.466,113.534,195.476z"/>
	<path fill="#bebebe" d="M356.084,212.777c14.221-5.592,28.131-11.98,42.45-17.301c2.25,4.949,4.311,9.98,6.17,15.09
		c-14.12,5.971-28.279,11.84-42.479,17.641C360.595,222.896,357.845,218.027,356.084,212.777z"/>
</g>
<path fill="#bebebe" d="M280,330.667C280,345.21,268.21,357,253.666,357h-0.332C238.79,357,227,345.21,227,330.667l10-114.334
	C237,201.79,238.79,190,253.334,190h0.332C268.21,190,270,201.79,270,216.333L280,330.667z"/>
<rect fill="#bebebe" x="168" y="371" width="48" height="38"/>
<rect fill="#bebebe" x="232" y="371" width="48" height="38"/>
<rect fill="#bebebe" x="294" y="371" width="48" height="38"/>
</svg>
